<?xml version="1.0" encoding="UTF-8" standalone="no"?>
<!-- Created with Inkscape (http://www.inkscape.org/) -->

<svg
   version="1.1"
   id="svg4679"
   width="694.88934"
   height="600"
   viewBox="0 0 694.88934 586.3147"
   sodipodi:docname="mapaOficial.svg"
   inkscape:version="1.2.2 (732a01da63, 2022-12-09)"
   xmlns:inkscape="http://www.inkscape.org/namespaces/inkscape"
   xmlns:sodipodi="http://sodipodi.sourceforge.net/DTD/sodipodi-0.dtd"
   xmlns="http://www.w3.org/2000/svg"
   xmlns:svg="http://www.w3.org/2000/svg">
  <defs
     id="defs4683">
    <linearGradient
       id="linearGradient29163"
       inkscape:swatch="solid">
      <stop
         style="stop-color:#000000;stop-opacity:1;"
         offset="0"
         id="stop29161" />
    </linearGradient>
    <rect
       x="324.5"
       y="229.5"
       width="7"
       height="20.5"
       id="rect23939" />
    <rect
       x="325"
       y="230"
       width="63"
       height="14.5"
       id="rect23933" />
    <rect
       x="207"
       y="319"
       width="4.5"
       height="10"
       id="rect16920" />
    <clipPath
       clipPathUnits="userSpaceOnUse"
       id="clipPath4695">
      <path
         d="M 0,439.736 H 521.167 V 0 H 0 Z"
         id="path4693" />
    </clipPath>
    <clipPath
       clipPathUnits="userSpaceOnUse"
       id="clipPath4703">
      <path
         d="M -1.72928,437.905 H 521.167 V 0.666702 H -1.72928 Z"
         id="path4701" />
    </clipPath>
    <clipPath
       clipPathUnits="userSpaceOnUse"
       id="clipPath4797">
      <path
         d="M 0,439.736 H 521.167 V 0 H 0 Z"
         id="path4795" />
    </clipPath>
    <clipPath
       clipPathUnits="userSpaceOnUse"
       id="clipPath4813">
      <path
         d="M 0,439.736 H 521.167 V 0 H 0 Z"
         id="path4811" />
    </clipPath>
    <clipPath
       clipPathUnits="userSpaceOnUse"
       id="clipPath4829">
      <path
         d="M 0,439.736 H 521.167 V 0 H 0 Z"
         id="path4827" />
    </clipPath>
    <clipPath
       clipPathUnits="userSpaceOnUse"
       id="clipPath4845">
      <path
         d="M 0,439.736 H 521.167 V 0 H 0 Z"
         id="path4843" />
    </clipPath>
    <clipPath
       clipPathUnits="userSpaceOnUse"
       id="clipPath4861">
      <path
         d="M 0,439.736 H 521.167 V 0 H 0 Z"
         id="path4859" />
    </clipPath>
    <clipPath
       clipPathUnits="userSpaceOnUse"
       id="clipPath4877">
      <path
         d="M 0,439.736 H 521.167 V 0 H 0 Z"
         id="path4875" />
    </clipPath>
    <clipPath
       clipPathUnits="userSpaceOnUse"
       id="clipPath4893">
      <path
         d="M 0,439.736 H 521.167 V 0 H 0 Z"
         id="path4891" />
    </clipPath>
    <clipPath
       clipPathUnits="userSpaceOnUse"
       id="clipPath4909">
      <path
         d="M 0,439.736 H 521.167 V 0 H 0 Z"
         id="path4907" />
    </clipPath>
    <clipPath
       clipPathUnits="userSpaceOnUse"
       id="clipPath4927">
      <path
         d="M 0,439.736 H 521.167 V 0 H 0 Z"
         id="path4925" />
    </clipPath>
    <clipPath
       clipPathUnits="userSpaceOnUse"
       id="clipPath5059">
      <path
         d="M 0,439.736 H 521.167 V 0 H 0 Z"
         id="path5057" />
    </clipPath>
  </defs>
  <sodipodi:namedview
     id="namedview4681"
     pagecolor="#ffffff"
     bordercolor="#000000"
     borderopacity="0.25"
     inkscape:showpageshadow="2"
     inkscape:pageopacity="0.0"
     inkscape:pagecheckerboard="0"
     inkscape:deskcolor="#d1d1d1"
     showgrid="false"
     inkscape:zoom="2"
     inkscape:cx="375.75"
     inkscape:cy="117.5"
     inkscape:window-width="1920"
     inkscape:window-height="1009"
     inkscape:window-x="-8"
     inkscape:window-y="-8"
     inkscape:window-maximized="1"
     inkscape:current-layer="g4687"
     showguides="false">
    <inkscape:page
       x="0"
       y="0"
       id="page4685"
       width="694.88934"
       height="586.3147" />
    <inkscape:page
       x="714.88933"
       y="0"
       id="page4939"
       width="694.88933"
       height="586.31467" />
  </sodipodi:namedview>
  <g
     id="g4687"
     inkscape:groupmode="layer"
     inkscape:label="Page 1"
     transform="matrix(1.3333333,0,0,-1.3333333,0,586.31467)">
    <g
       id="g4689"
       style="fill:none;fill-opacity:1"
       transform="matrix(1.0539654,0,0,1.0539654,0,-23.631731)">
      <g
         id="g4691"
         clip-path="url(#clipPath4695)"
         style="fill:none;fill-opacity:1">
        <g
           id="g4697"
           style="fill:none;fill-opacity:1">
          <g
             id="g4699"
             style="fill:none;fill-opacity:1" />
          <g
             id="g4709"
             style="fill:none;fill-opacity:1">
            <g
               clip-path="url(#clipPath4703)"
               opacity="0.5"
               id="g4707"
               style="fill:none;fill-opacity:1">
              <path
                 d="M -1.729,437.905 H 521.167 V 0.666 H -1.729 Z"
                 style="fill:none;fill-opacity:1;fill-rule:nonzero;stroke:none"
                 id="path4705" />
            </g>
          </g>
        </g>
      </g>
    </g>
    <g
       id="g4711"
       transform="matrix(1.1820667,0,0,1.1288651,516.59032,78.358207)">
      <path
         d="m 0,0 -133.269,12.264 3.693,8.204 3.589,4.871 5.64,3.333 -6.409,7.691 -1.538,9.486 3.076,8.203 2.82,6.922 5.384,6.153 2.307,4.871 v 5.641 l -2.051,5.383 -1.538,2.564 5.64,6.409 -2.563,7.691 v 8.461 l -5.897,8.973 4.358,6.409 -0.512,8.204 -3.59,2.563 -0.769,9.23 5.384,4.102 -1.794,5.127 -2.564,2.564 2.051,6.665 -3.333,1.795 -1.026,2.82 1.026,7.948 21.791,-1.539 8.461,-3.076 4.614,-3.077 2.564,-3.589 4.358,1.282 1.539,3.846 1.794,10.511 78.193,11.28 z"
         style="fill:#ffffff;fill-opacity:1;fill-rule:nonzero;stroke:none"
         id="path4713" />
    </g>
    <g
       id="g4715"
       transform="matrix(1.1820667,0,0,1.1288651,516.59032,78.358207)">
      <path
         d="m 0,0 -133.269,12.264 3.693,8.204 3.589,4.871 5.64,3.333 -6.409,7.691 -1.538,9.486 3.076,8.203 2.82,6.922 5.384,6.153 2.307,4.871 v 5.641 l -2.051,5.383 -1.538,2.564 5.64,6.409 -2.563,7.691 v 8.461 l -5.897,8.973 4.358,6.409 -0.512,8.204 -3.59,2.563 -0.769,9.23 5.384,4.102 -1.794,5.127 -2.564,2.564 2.051,6.665 -3.333,1.795 -1.026,2.82 1.026,7.948 21.791,-1.539 8.461,-3.076 4.614,-3.077 2.564,-3.589 4.358,1.282 1.539,3.846 1.794,10.511 78.193,11.28 z"
         style="fill:none;stroke:#000000;stroke-width:0.25;stroke-linecap:butt;stroke-linejoin:miter;stroke-miterlimit:10;stroke-dasharray:none;stroke-opacity:1"
         id="path4717" />
    </g>
    <g
       id="g4719"
       transform="matrix(1.1820667,0,0,1.1288651,367.66541,106.96242)">
      <path
         d="m 0,0 5.64,3.333 -6.409,7.691 -1.538,9.486 3.076,8.204 2.82,6.921 5.384,6.153 2.307,4.871 V 52.3 l -2.051,5.383 -1.538,2.564 5.64,6.409 -2.563,7.691 v 8.461 l -5.897,8.973 4.358,6.409 -0.512,8.204 -3.59,2.563 -0.769,9.23 5.384,4.102 -1.795,5.127 -2.563,2.564 2.051,6.665 -3.333,1.795 -1.026,2.82 0.808,6.258 -26.991,-18.967 -17.891,-6.271 -7.221,-2.397 -11.673,-11.037 -40.752,-13.372 h -18.253 l -6.245,-3.598 v -9.773 l -2.882,-4.245 -0.424,-8.104 -5.306,-9.513 -1.698,-5.731 -14.221,-5.093 v -2.123 h 7.217 l 9.338,-7.429 -3.608,-5.518 14.645,-12.735 16.768,-9.763 10.4,2.334 4.033,-4.457 h 3.396 V 6.755 h 7.428 l 4.67,-4.882 8.49,-1.486 1.91,-4.881 7.216,-8.066 h 50.72 l 3.461,7.689 z"
         style="fill:#ffffff;fill-opacity:1;fill-rule:nonzero;stroke:none"
         id="path4721" />
    </g>
    <g
       id="g4723"
       transform="matrix(1.1820667,0,0,1.1288651,367.66541,106.96242)">
      <path
         d="m 0,0 5.64,3.333 -6.409,7.691 -1.538,9.486 3.076,8.204 2.82,6.921 5.384,6.153 2.307,4.871 V 52.3 l -2.051,5.383 -1.538,2.564 5.64,6.409 -2.563,7.691 v 8.461 l -5.897,8.973 4.358,6.409 -0.512,8.204 -3.59,2.563 -0.769,9.23 5.384,4.102 -1.795,5.127 -2.563,2.564 2.051,6.665 -3.333,1.795 -1.026,2.82 0.808,6.258 -26.991,-18.967 -17.891,-6.271 -7.221,-2.397 -11.673,-11.037 -40.752,-13.372 h -18.253 l -6.245,-3.598 v -9.773 l -2.882,-4.245 -0.424,-8.104 -5.306,-9.513 -1.698,-5.731 -14.221,-5.093 v -2.123 h 7.217 l 9.338,-7.429 -3.608,-5.518 14.645,-12.735 16.768,-9.763 10.4,2.334 4.033,-4.457 h 3.396 V 6.755 h 7.428 l 4.67,-4.882 8.49,-1.486 1.91,-4.881 7.216,-8.066 h 50.72 l 3.461,7.689 z"
         style="fill:none;stroke:#000000;stroke-width:0.25;stroke-linecap:butt;stroke-linejoin:miter;stroke-miterlimit:10;stroke-dasharray:none;stroke-opacity:1"
         id="path4725" />
    </g>
    <g
       id="g31937"
       transform="matrix(1.1820667,0,0,1.1288651,-32.558806,-36.866181)">
      <g
         id="g4727"
         transform="translate(237.9364,222.8841)">
        <path
           d="m 0,0 40.751,13.372 11.674,11.036 4.59,49.43 h -2.922 v 4.64 l -4.64,7.218 13.061,17.185 -2.75,18.56 -3.78,4.468 h -8.249 l -4.468,5.671 6.014,10.827 -4.468,5.671 1.031,11.514 -5.671,2.234 -8.764,4.64 -6.359,9.967 18.732,13.748 -3.437,3.437 -4.984,-3.609 -2.749,0.86 -0.172,4.124 -8.249,1.89 -4.296,-7.561 -6.53,-4.468 v -5.499 l 5.155,-7.218 -0.172,-4.468 -6.358,-11.686 3.609,-5.156 -3.609,-3.608 -5.156,-1.375 2.862,-5.542 -0.697,-7.273 -3.985,-9.266 1.992,-1.295 -0.299,-4.184 3.188,-3.886 -0.896,-13.25 -18.184,-8.355 -7.338,-0.638 -4.307,-2.393 -8.613,5.743 -6.859,-3.828 v -4.945 l -9.89,-10.209 8.135,-12.761 3.35,-1.116 4.785,-8.913 -0.319,-4.167 1.755,-2.233 -1.595,-9.89 2.073,-2.871 2.074,-5.742 1.436,-2.712 -0.319,-7.816 V 3.627 l -7.019,-5.104 7.137,-2.121 1.253,0.606 5.193,2.992 z"
           style="fill:#ffffff;fill-opacity:1;fill-rule:nonzero;stroke:none"
           id="path4729" />
      </g>
    </g>
    <g
       id="g4731"
       transform="matrix(1.1820667,0,0,1.1288651,248.69787,214.73989)">
      <path
         d="m 0,0 40.751,13.372 11.674,11.036 4.59,49.43 h -2.922 v 4.64 l -4.64,7.218 13.061,17.185 -2.75,18.56 -3.78,4.468 h -8.249 l -4.468,5.671 6.014,10.827 -4.468,5.671 1.031,11.514 -5.671,2.234 -8.764,4.64 -6.359,9.967 18.732,13.748 -3.437,3.437 -4.984,-3.609 -2.749,0.86 -0.172,4.124 -8.249,1.89 -4.296,-7.561 -6.53,-4.468 v -5.499 l 5.155,-7.218 -0.172,-4.468 -6.358,-11.686 3.609,-5.156 -3.609,-3.608 -5.156,-1.375 2.862,-5.542 -0.697,-7.273 -3.985,-9.266 1.992,-1.295 -0.299,-4.184 3.188,-3.886 -0.896,-13.25 -18.184,-8.355 -7.338,-0.638 -4.307,-2.393 -8.613,5.743 -6.859,-3.828 v -4.945 l -9.89,-10.209 8.135,-12.761 3.35,-1.116 4.785,-8.913 -0.319,-4.167 1.755,-2.233 -1.595,-9.89 2.073,-2.871 2.074,-5.742 1.436,-2.712 -0.319,-7.816 V 3.627 l -7.019,-5.104 7.137,-2.121 1.253,0.606 5.193,2.992 z"
         style="fill:none;stroke:#000000;stroke-width:0.25;stroke-linecap:butt;stroke-linejoin:miter;stroke-miterlimit:10;stroke-dasharray:none;stroke-opacity:1"
         id="path4733" />
    </g>
    <g
       id="g31933"
       transform="matrix(1.1820667,0,0,1.1288651,-32.558806,-36.866181)">
      <g
         id="g4735"
         transform="translate(201.6342,314.5606)">
        <path
           d="m 0,0 6.859,3.828 8.613,-5.742 4.307,2.393 7.338,0.638 18.184,8.354 0.897,13.251 -3.189,3.885 0.299,4.185 -1.992,1.295 0.301,0.701 h -5.9 l -13.658,-5.186 -7.952,-2.593 -3.977,2.42 -5.013,0.173 -3.631,3.457 -1.037,6.397 -7.952,4.668 -7.434,-1.21 -3.458,1.21 -8.125,10.718 -5.532,-6.396 -1.729,-2.939 4.322,-4.582 h 4.84 l 0.692,-3.889 -1.902,-1.902 -0.173,-10.2 -2.247,-1.21 -2.593,-1.729 3.803,-6.569 -3.112,-3.631 -3.63,-1.383 -1.383,-2.074 3.284,-1.372 2.594,-2.086 -2.075,-2.247 2.593,-2.421 11.756,-11.928 7.41,-1.14 L 0,-4.945 Z"
           style="fill:#ffffff;fill-opacity:1;fill-rule:nonzero;stroke:none"
           id="path4737" />
      </g>
    </g>
    <g
       id="g4739"
       transform="matrix(1.1820667,0,0,1.1288651,205.78624,318.23029)">
      <path
         d="m 0,0 6.859,3.828 8.613,-5.742 4.307,2.393 7.338,0.638 18.184,8.354 0.897,13.251 -3.189,3.885 0.299,4.185 -1.992,1.295 0.301,0.701 h -5.9 l -13.658,-5.186 -7.952,-2.593 -3.977,2.42 -5.013,0.173 -3.631,3.457 -1.037,6.397 -7.952,4.668 -7.434,-1.21 -3.458,1.21 -8.125,10.718 -5.532,-6.396 -1.729,-2.939 4.322,-4.582 h 4.84 l 0.692,-3.889 -1.902,-1.902 -0.173,-10.2 -2.247,-1.21 -2.593,-1.729 3.803,-6.569 -3.112,-3.631 -3.63,-1.383 -1.383,-2.074 3.284,-1.372 2.594,-2.086 -2.075,-2.247 2.593,-2.421 11.756,-11.928 7.41,-1.14 L 0,-4.945 Z"
         style="fill:none;stroke:#000000;stroke-width:0.25;stroke-linecap:butt;stroke-linejoin:miter;stroke-miterlimit:10;stroke-dasharray:none;stroke-opacity:1"
         id="path4741" />
    </g>
    <g
       id="g4743"
       transform="matrix(1.1820667,0,0,1.1288651,218.04216,247.32572)">
      <path
         d="m 0,0 -2.074,5.742 -2.073,2.872 1.595,9.889 -1.755,2.233 0.319,4.168 -4.785,8.912 -3.35,1.117 -4.22,6.619 -12.187,-5.061 -8.253,-4.322 -4.06,-2.751 -4.131,-6.943 -26.745,-16.012 1.099,-1.428 16.15,-1.319 4.944,-1.977 v -2.747 l 2.967,-5.383 0.659,-9.339 h 6.592 l 0.44,5.603 3.405,1.868 7.581,-8.68 14.809,9.449 9.362,-5.493 4.845,2.89 0.302,7.381 z"
         style="fill:#ffffff;fill-opacity:1;fill-rule:nonzero;stroke:none"
         id="path4745" />
    </g>
    <g
       id="g4747"
       transform="matrix(1.1820667,0,0,1.1288651,218.04216,247.32572)">
      <path
         d="m 0,0 -2.074,5.742 -2.073,2.872 1.595,9.889 -1.755,2.233 0.319,4.168 -4.785,8.912 -3.35,1.117 -4.22,6.619 -12.187,-5.061 -8.253,-4.322 -4.06,-2.751 -4.131,-6.943 -26.745,-16.012 1.099,-1.428 16.15,-1.319 4.944,-1.977 v -2.747 l 2.967,-5.383 0.659,-9.339 h 6.592 l 0.44,5.603 3.405,1.868 7.581,-8.68 14.809,9.449 9.362,-5.493 4.845,2.89 0.302,7.381 z"
         style="fill:none;stroke:#000000;stroke-width:0.25;stroke-linecap:butt;stroke-linejoin:miter;stroke-miterlimit:10;stroke-dasharray:none;stroke-opacity:1"
         id="path4749" />
    </g>
    <g
       id="g4751"
       transform="matrix(1.1820667,0,0,1.1288651,380.99948,166.0016)">
      <path
         d="m 0,0 -2.051,5.384 -1.538,2.563 5.64,6.41 -2.564,7.691 v 8.46 l -5.896,8.973 4.358,6.409 -0.022,0.352 -89.915,0.56 V -7.366 l 6.678,-4.006 20.034,-0.149 2.82,2.226 6.827,0.742 3.71,-1.706 -0.742,-4.527 h 10.982 l 8.756,2.523 6.084,-2.523 0.594,2.968 3.561,1.336 4.121,1.632 4.042,1.559 2.522,-1.559 h 3.117 l 2.82,3.117 5.296,-1.524 L 0,-5.64 Z"
         style="fill:#ffffff;fill-opacity:1;fill-rule:nonzero;stroke:none"
         id="path4753" />
    </g>
    <g
       id="g4755"
       transform="matrix(1.1820667,0,0,1.1288651,380.99948,166.0016)">
      <path
         d="m 0,0 -2.051,5.384 -1.538,2.563 5.64,6.41 -2.564,7.691 v 8.46 l -5.896,8.973 4.358,6.409 -0.022,0.352 -89.915,0.56 V -7.366 l 6.678,-4.006 20.034,-0.149 2.82,2.226 6.827,0.742 3.71,-1.706 -0.742,-4.527 h 10.982 l 8.756,2.523 6.084,-2.523 0.594,2.968 3.561,1.336 4.121,1.632 4.042,1.559 2.522,-1.559 h 3.117 l 2.82,3.117 5.296,-1.524 L 0,-5.64 Z"
         style="fill:none;stroke:#000000;stroke-width:0.25;stroke-linecap:butt;stroke-linejoin:miter;stroke-miterlimit:10;stroke-dasharray:none;stroke-opacity:1"
         id="path4757" />
    </g>
    <g
       id="g4759"
       transform="matrix(1.1820667,0,0,1.1288651,290.8474,101.88895)">
      <g
         id="g32334">
        <g
           id="g32325">
          <g
             id="g32317">
            <g
               id="g32310">
              <g
                 id="g32304">
                <g
                   id="g32299">
                  <g
                     id="g32295">
                    <path
                       d="m 0,0 -1.91,4.882 -8.49,1.485 -4.67,4.882 h -7.428 v 2.972 h -3.396 l -4.033,4.457 -10.4,-2.335 -16.768,9.763 -14.645,12.735 3.609,5.519 -9.339,7.428 h -5.834 l -5.513,-1.884 0.267,-4.28 -0.535,-5.752 -1.204,-6.688 -3.477,3.612 h -5.618 l -5.217,-2.809 -7.223,-9.096 5.35,-5.083 -6.42,-2.943 5.216,-19.396 3.746,-8.025 4.681,4.28 3.612,-4.682 1.873,-0.802 3.477,2.541 3.077,1.154 2.525,-0.886 -1.856,-3.077 1.856,-1.471 3.227,-1.873 -6.153,-0.535 -3.077,-1.739 -1.204,-2.006 -1.739,-5.484 0.268,-3.879 2.006,-3.344 -2.407,-2.141 -13.778,-6.554 5.351,-12.039 -6.689,-8.56 h -7.089 l -4.949,-5.618 -1.605,-6.02 -5.083,0.134 -2.274,2.007 -17.657,-12.173 4.147,-3.611 h 5.35 l 6.153,1.872 20.332,11.236 6.421,-5.35 6.42,0.134 2.676,-4.415 6.554,2.542 v 3.076 l 3.344,3.211 3.344,-2.675 8.828,-0.268 4.415,-4.013 4.815,-0.267 6.956,-3.211 v 30.231 l 15.382,1.07 v 15.516 l -4.146,0.803 v 17.255 h -8.294 l -1.07,5.885 5.083,4.281 24.88,1.956 3.076,-5.3 h 19.688 v 3.076 l 11.211,-0.802 v 3.026 h -0.81 z"
                       style="fill:#ffffff;fill-opacity:1;fill-rule:nonzero;stroke:none"
                       id="path4761" />
                  </g>
                </g>
              </g>
            </g>
          </g>
        </g>
      </g>
    </g>
    <g
       id="g4763"
       transform="matrix(1.1820667,0,0,1.1288651,290.8474,101.88895)">
      <path
         d="m 0,0 -1.91,4.882 -8.49,1.485 -4.67,4.882 h -7.428 v 2.972 h -3.396 l -4.033,4.457 -10.4,-2.335 -16.768,9.763 -14.645,12.735 3.609,5.519 -9.339,7.428 h -5.834 l -5.513,-1.884 0.267,-4.28 -0.535,-5.752 -1.204,-6.688 -3.477,3.612 h -5.618 l -5.217,-2.809 -7.223,-9.096 5.35,-5.083 -6.42,-2.943 5.216,-19.396 3.746,-8.025 4.681,4.28 3.612,-4.682 1.873,-0.802 3.477,2.541 3.077,1.154 2.525,-0.886 -1.856,-3.077 1.856,-1.471 3.227,-1.873 -6.153,-0.535 -3.077,-1.739 -1.204,-2.006 -1.739,-5.484 0.268,-3.879 2.006,-3.344 -2.407,-2.141 -13.778,-6.554 5.351,-12.039 -6.689,-8.56 h -7.089 l -4.949,-5.618 -1.605,-6.02 -5.083,0.134 -2.274,2.007 -17.657,-12.173 4.147,-3.611 h 5.35 l 6.153,1.872 20.332,11.236 6.421,-5.35 6.42,0.134 2.676,-4.415 6.554,2.542 v 3.076 l 3.344,3.211 3.344,-2.675 8.828,-0.268 4.415,-4.013 4.815,-0.267 6.956,-3.211 v 30.231 l 15.382,1.07 v 15.516 l -4.146,0.803 v 17.255 h -8.294 l -1.07,5.885 5.083,4.281 24.88,1.956 3.076,-5.3 h 19.688 v 3.076 l 11.211,-0.802 v 3.026 h -0.81 z"
         style="fill:none;stroke:#000000;stroke-width:0.25;stroke-linecap:butt;stroke-linejoin:miter;stroke-miterlimit:10;stroke-dasharray:none;stroke-opacity:1"
         id="path4765" />
    </g>
    <g
       id="g4767"
       transform="matrix(1.1820667,0,0,1.1288651,158.66375,129.98717)">
      <g
         id="g31944">
        <g
           id="g31940">
          <path
             d="m 0,0 7.223,9.096 5.217,2.809 h 5.618 l 3.478,-3.612 1.204,6.688 0.535,5.752 -0.268,4.28 4.283,1.464 -0.152,2.543 14.22,5.094 1.698,5.731 5.306,9.512 0.425,8.104 2.881,4.245 v 9.774 l -7.136,2.12 7.018,5.105 V 93.38 l 0.023,0.557 -5.051,-3.013 -9.362,5.493 -14.809,-9.448 -7.581,8.679 -3.406,-1.867 -0.439,-5.604 H 4.333 L 3.674,97.516 0.707,102.9 v 2.746 l -4.944,1.978 -16.15,1.318 -1.099,1.429 0.568,-7.529 0.848,-3.708 -3.39,-1.059 -2.436,-2.118 -0.741,-5.72 -4.449,-0.741 v -8.579 l -3.177,-3.284 4.236,-0.635 -1.483,-4.761 -8.155,-5.408 0.953,-6.461 -0.424,-3.919 -8.473,-14.299 -0.636,-10.697 3.813,-6.779 4.767,-0.741 4.509,-3.602 -0.908,-11.121 1.906,-3.072 0.53,-3.601 7.308,-10.592 h 8.474 l 4.131,-3.601 7.52,3.178 5.683,1.209 0.683,-0.188 5.179,2.374 z"
             style="fill:#ffffff;fill-opacity:1;fill-rule:nonzero;stroke:none"
             id="path4769" />
        </g>
      </g>
    </g>
    <g
       id="g4771"
       transform="matrix(1.1820667,0,0,1.1288651,158.66375,129.98717)">
      <path
         d="m 0,0 7.223,9.096 5.217,2.809 h 5.618 l 3.478,-3.612 1.204,6.688 0.535,5.752 -0.268,4.28 4.283,1.464 -0.152,2.543 14.22,5.094 1.698,5.731 5.306,9.512 0.425,8.104 2.881,4.245 v 9.774 l -7.136,2.12 7.018,5.105 V 93.38 l 0.023,0.557 -5.051,-3.013 -9.362,5.493 -14.809,-9.448 -7.581,8.679 -3.406,-1.867 -0.439,-5.604 H 4.333 L 3.674,97.516 0.707,102.9 v 2.746 l -4.944,1.978 -16.15,1.318 -1.099,1.429 0.568,-7.529 0.848,-3.708 -3.39,-1.059 -2.436,-2.118 -0.741,-5.72 -4.449,-0.741 v -8.579 l -3.177,-3.284 4.236,-0.635 -1.483,-4.761 -8.155,-5.408 0.953,-6.461 -0.424,-3.919 -8.473,-14.299 -0.636,-10.697 3.813,-6.779 4.767,-0.741 4.509,-3.602 -0.908,-11.121 1.906,-3.072 0.53,-3.601 7.308,-10.592 h 8.474 l 4.131,-3.601 7.52,3.178 5.683,1.209 0.683,-0.188 5.179,2.374 z"
         style="fill:none;stroke:#000000;stroke-width:0.25;stroke-linecap:butt;stroke-linejoin:miter;stroke-miterlimit:10;stroke-dasharray:none;stroke-opacity:1"
         id="path4773" />
    </g>
    <g
       id="g4775"
       transform="matrix(1.1820667,0,0,1.1288651,116.0337,141.29278)">
      <path
         d="M 0,0 0.036,-0.058 0.891,10.417 0.852,10.448 Z"
         style="fill:#ffffff;fill-opacity:1;fill-rule:nonzero;stroke:none"
         id="path4777" />
    </g>
    <g
       id="g4779"
       transform="matrix(1.1820667,0,0,1.1288651,116.07613,141.22753)">
      <path
         d="M 0,0 0.855,10.475 0.817,10.505 -0.036,0.058 Z"
         style="fill:none;stroke:#000000;stroke-width:0.25;stroke-linecap:butt;stroke-linejoin:miter;stroke-miterlimit:10;stroke-dasharray:none;stroke-opacity:1"
         id="path4781" />
    </g>
    <g
       id="g4783"
       transform="matrix(1.1820667,0,0,1.1288651,151.32075,120.53011)">
      <g
         id="g32292">
        <g
           id="g32266">
          <g
             id="g32241">
            <g
               id="g32217">
              <g
                 id="g32194">
                <g
                   id="g32172">
                  <g
                     id="g32151">
                    <g
                       id="g32131">
                      <g
                         id="g32112">
                        <g
                           id="g32094">
                          <g
                             id="g32077">
                            <g
                               id="g32061">
                              <g
                                 id="g32046">
                                <g
                                   id="g32032">
                                <g
                                   id="g32019">
                                <g
                                   id="g32007">
                                <g
                                   id="g31996">
                                <g
                                   id="g31986">
                                <g
                                   id="g31977">
                                <g
                                   id="g31969">
                                <g
                                   id="g31962">
                                <g
                                   id="g31956">
                                <g
                                   id="g31951">
                                <g
                                   id="g31947">
                                <path
                                   d="m 0,0 -7.52,-3.178 -4.131,3.602 h -8.473 l -7.309,10.592 -0.529,3.601 -1.907,3.071 0.053,0.647 -0.036,0.058 0.853,10.447 -4.471,3.571 -4.766,0.741 -3.813,6.779 0.039,0.664 -0.023,0.041 0.131,2.194 -7.062,-7.596 2.594,-4.02 -4.02,-9.725 -15.691,-8.818 0.519,-10.245 -4.409,1.427 -4.539,1.686 -4.279,-3.891 h -5.835 l 4.798,-4.798 5.187,-1.426 0.259,-6.743 2.334,-2.204 0.26,-10.25 -4.28,-4.404 2.723,-3.501 10.828,-0.648 2.659,-10.504 -0.519,-12.189 -5.446,-5.965 3.306,-0.649 h 6.289 l 6.484,-12.578 h 3.242 l 16.998,-24.82 h 1.168 l 16.488,11.367 2.274,-2.006 5.083,-0.134 1.605,6.02 4.949,5.617 h 7.09 l 6.688,8.561 -5.351,12.039 13.778,6.554 2.408,2.14 -2.007,3.344 -0.267,3.88 1.739,5.484 1.203,2.006 3.077,1.739 6.153,0.535 -3.226,1.873 -1.857,1.471 1.857,3.077 -2.526,0.885 -3.076,-1.153 -3.478,-2.541 -1.873,0.802 -3.611,4.682 -4.682,-4.28 -3.745,8.025 L 5.142,0.352 5.87,1.158 5.683,1.21 Z"
                                   style="fill:#ffffff;fill-opacity:1;fill-rule:nonzero;stroke:none"
                                   id="path4785" />
                                </g>
                                </g>
                                </g>
                                </g>
                                </g>
                                </g>
                                </g>
                                </g>
                                </g>
                                </g>
                                </g>
                              </g>
                            </g>
                          </g>
                        </g>
                      </g>
                    </g>
                  </g>
                </g>
              </g>
            </g>
          </g>
        </g>
      </g>
    </g>
    <g
       id="g4787"
       transform="matrix(1.1820667,0,0,1.1288651,151.32075,120.53011)">
      <path
         d="m 0,0 -7.52,-3.178 -4.131,3.602 h -8.473 l -7.309,10.592 -0.529,3.601 -1.907,3.071 0.053,0.647 -0.036,0.058 0.853,10.447 -4.471,3.571 -4.766,0.741 -3.813,6.779 0.039,0.664 -0.023,0.041 0.131,2.194 -7.062,-7.596 2.594,-4.02 -4.02,-9.725 -15.691,-8.818 0.519,-10.245 -4.409,1.427 -4.539,1.686 -4.279,-3.891 h -5.835 l 4.798,-4.798 5.187,-1.426 0.259,-6.743 2.334,-2.204 0.26,-10.25 -4.28,-4.404 2.723,-3.501 10.828,-0.648 2.659,-10.504 -0.519,-12.189 -5.446,-5.965 3.306,-0.649 h 6.289 l 6.484,-12.578 h 3.242 l 16.998,-24.82 h 1.168 l 16.488,11.367 2.274,-2.006 5.083,-0.134 1.605,6.02 4.949,5.617 h 7.09 l 6.688,8.561 -5.351,12.039 13.778,6.554 2.408,2.14 -2.007,3.344 -0.267,3.88 1.739,5.484 1.203,2.006 3.077,1.739 6.153,0.535 -3.226,1.873 -1.857,1.471 1.857,3.077 -2.526,0.885 -3.076,-1.153 -3.478,-2.541 -1.873,0.802 -3.611,4.682 -4.682,-4.28 -3.745,8.025 L 5.142,0.352 5.87,1.158 5.683,1.21 Z"
         style="fill:none;stroke:#000000;stroke-width:0.25;stroke-linecap:butt;stroke-linejoin:miter;stroke-miterlimit:10;stroke-dasharray:none;stroke-opacity:1"
         id="path4789" />
    </g>
    <g
       id="g4791"
       transform="matrix(1.1820667,0,0,1.1288651,-32.558806,-36.866181)">
      <g
         id="g4793"
         clip-path="url(#clipPath4797)">
        <g
           id="g4799"
           transform="translate(390.626,189.3301)">
          <path
             d="m 0,0 c 0,-2.189 -1.774,-3.963 -3.963,-3.963 -2.189,0 -3.963,1.774 -3.963,3.963 0,2.189 1.774,3.963 3.963,3.963 C -1.774,3.963 0,2.189 0,0"
             style="fill:#0d9b52;fill-opacity:1;fill-rule:nonzero;stroke:none"
             id="path4801" />
        </g>
      </g>
    </g>
    <text
       xml:space="preserve"
       transform="matrix(1.1820667,0,0,-1.1288651,433.35841,172.17887)"
       style="font-variant:normal;font-weight:normal;font-stretch:normal;font-size:11px;font-family:Antonio;-inkscape-font-specification:Antonio-Regular;writing-mode:lr-tb;white-space:pre;inline-size:63.28;display:inline;fill:#000000;fill-opacity:1;fill-rule:nonzero;stroke:none"
       id="text4805"><tspan
         x="0"
         y="0"
         id="tspan33731">Pailón</tspan></text>
    <g
       id="g4807"
       transform="matrix(1.1820667,0,0,1.1288651,-32.558806,-36.866181)">
      <g
         id="g4809"
         clip-path="url(#clipPath4813)">
        <g
           id="g4815"
           transform="translate(291.21,194.9814)">
          <path
             d="m 0,0 c 0,-2.189 -1.774,-3.963 -3.963,-3.963 -2.189,0 -3.963,1.774 -3.963,3.963 0,2.189 1.774,3.963 3.963,3.963 C -1.774,3.963 0,2.189 0,0"
             style="fill:#a6cd2f;fill-opacity:1;fill-rule:nonzero;stroke:none"
             id="path4817" />
        </g>
      </g>
    </g>
    <text
       xml:space="preserve"
       transform="matrix(1.1820667,0,0,-1.1288651,315.84208,178.55854)"
       style="font-variant:normal;font-weight:normal;font-stretch:normal;font-size:11px;font-family:Antonio;-inkscape-font-specification:Antonio-Regular;writing-mode:lr-tb;white-space:pre;inline-size:45.6336;display:inline;fill:#000000;fill-opacity:1;fill-rule:nonzero;stroke:none"
       id="text4821"><tspan
         x="0"
         y="0"
         id="tspan33733">Cotoca</tspan></text>
    <g
       id="g4823"
       transform="matrix(1.1820667,0,0,1.1288651,-32.558806,-36.866181)">
      <g
         id="g4825"
         clip-path="url(#clipPath4829)">
        <g
           id="g4831"
           transform="translate(148.2095,196.3007)">
          <path
             d="m 0,0 c 0,-2.189 -1.774,-3.963 -3.963,-3.963 -2.189,0 -3.963,1.774 -3.963,3.963 0,2.189 1.774,3.963 3.963,3.963 C -1.774,3.963 0,2.189 0,0"
             style="fill:#a6cd2f;fill-opacity:1;fill-rule:nonzero;stroke:none"
             id="path4833" />
        </g>
      </g>
    </g>
    <text
       xml:space="preserve"
       transform="matrix(1.1820667,0,0,-1.1288651,146.80597,180.04785)"
       style="font-variant:normal;font-weight:normal;font-stretch:normal;font-size:11px;font-family:Antonio;-inkscape-font-specification:Antonio-Regular;writing-mode:lr-tb;white-space:pre;inline-size:54.9267;display:inline;fill:#000000;fill-opacity:1;fill-rule:nonzero;stroke:none"
       id="text4837"><tspan
         x="0"
         y="0"
         id="tspan33735">Porongo</tspan></text>
    <g
       id="g4839"
       transform="matrix(1.1820667,0,0,1.1288651,-32.558806,-36.866181)">
      <g
         id="g4841"
         clip-path="url(#clipPath4845)">
        <g
           id="g4847"
           transform="translate(115.7235,101.3796)">
          <path
             d="m 0,0 c 0,-2.189 -1.774,-3.963 -3.963,-3.963 -2.189,0 -3.963,1.774 -3.963,3.963 0,2.189 1.774,3.963 3.963,3.963 C -1.774,3.963 0,2.189 0,0"
             style="fill:#d1de89;fill-opacity:1;fill-rule:nonzero;stroke:none"
             id="path4849" />
        </g>
      </g>
    </g>
    <text
       xml:space="preserve"
       transform="matrix(1.1820667,0,0,-1.1288651,108.40547,72.894951)"
       style="font-variant:normal;font-weight:normal;font-stretch:normal;font-size:11px;font-family:Antonio;-inkscape-font-specification:Antonio-Regular;writing-mode:lr-tb;white-space:pre;inline-size:59.1125;display:inline;fill:#000000;fill-opacity:1;fill-rule:nonzero;stroke:none"
       id="text4853"><tspan
         x="0"
         y="0"
         id="tspan33737">El Torno</tspan></text>
    <g
       id="g4855"
       transform="matrix(1.1820667,0,0,1.1288651,-32.558806,-36.866181)">
      <g
         id="g4857"
         clip-path="url(#clipPath4861)">
        <g
           id="g4863"
           transform="translate(184.5811,127.3576)">
          <path
             d="m 0,0 c 0,-2.189 -1.774,-3.963 -3.963,-3.963 -2.189,0 -3.963,1.774 -3.963,3.963 0,2.189 1.774,3.963 3.963,3.963 C -1.774,3.963 0,2.189 0,0"
             style="fill:#8b936a;fill-opacity:1;fill-rule:nonzero;stroke:none"
             id="path4865" />
        </g>
      </g>
    </g>
    <text
       xml:space="preserve"
       transform="matrix(1.171899,0,0,-1.1386592,-33.88863,-36.866181)"
       style="font-variant:normal;font-weight:normal;font-stretch:normal;font-size:10.9054px;font-family:Antonio;-inkscape-font-specification:Antonio-Regular;writing-mode:lr-tb;white-space:pre;inline-size:64.9694;display:inline;fill:#000000;fill-opacity:1;fill-rule:nonzero;stroke:none;stroke-width:0.991399"
       id="text4869"
       x="189.76051"
       y="-122.14922"><tspan
         x="189.76051"
         y="-122.14922"
         id="tspan33739">La Guardia</tspan></text>
    <g
       id="g4871"
       transform="matrix(1.1820667,0,0,1.1288651,-32.558806,-36.866181)">
      <g
         id="g4873"
         clip-path="url(#clipPath4877)">
        <g
           id="g4879"
           transform="translate(235.8179,270.9649)">
          <path
             d="m 0,0 c 0,-2.189 -1.774,-3.963 -3.963,-3.963 -2.189,0 -3.963,1.774 -3.963,3.963 0,2.189 1.774,3.963 3.963,3.963 C -1.774,3.963 0,2.189 0,0"
             style="fill:#82912c;fill-opacity:1;fill-rule:nonzero;stroke:none"
             id="path4881" />
        </g>
      </g>
    </g>
    <text
       xml:space="preserve"
       transform="matrix(1.1820667,0,0,-1.1288651,249.0351,276.18662)"
       style="font-variant:normal;font-weight:normal;font-stretch:normal;font-size:11px;font-family:Antonio;-inkscape-font-specification:Antonio-Regular;writing-mode:lr-tb;white-space:pre;inline-size:56.932;display:inline;fill:#000000;fill-opacity:1;fill-rule:nonzero;stroke:none"
       id="text4885"><tspan
         x="0"
         y="10.035633"
         id="tspan33741">Warnes</tspan></text>
    <g
       id="g4887"
       transform="matrix(1.1820667,0,0,1.1288651,-32.558806,-36.866181)">
      <g
         id="g4889"
         clip-path="url(#clipPath4893)">
        <g
           id="g4895"
           transform="translate(191.1057,329.5906)">
          <path
             d="m 0,0 c 0,-2.189 -1.774,-3.963 -3.963,-3.963 -2.189,0 -3.963,1.774 -3.963,3.963 0,2.189 1.774,3.963 3.963,3.963 C -1.774,3.963 0,2.189 0,0"
             style="fill:#dded9a;fill-opacity:1;fill-rule:nonzero;stroke:none"
             id="path4897" />
        </g>
      </g>
    </g>
    <text
       xml:space="preserve"
       transform="matrix(1.1820667,0,0,-1.1288651,197.51249,330.51438)"
       style="font-variant:normal;font-weight:normal;font-stretch:normal;font-size:11px;font-family:Antonio;-inkscape-font-specification:Antonio-Regular;writing-mode:lr-tb;white-space:pre;inline-size:46.8242;display:inline;fill:#000000;fill-opacity:1;fill-rule:nonzero;stroke:none"
       id="text4901"><tspan
         x="0"
         y="0"
         id="tspan33743">Montero</tspan></text>
    <g
       id="g4903"
       transform="matrix(1.1820667,0,0,1.1288651,-40.094481,-41.52275)">
      <g
         id="g4905"
         clip-path="url(#clipPath4909)">
        <g
           id="g4911"
           transform="translate(172.7382,268.0199)">
          <path
             d="m 0,0 c 0,-2.189 -1.774,-3.963 -3.963,-3.963 -2.189,0 -3.963,1.774 -3.963,3.963 0,2.189 1.774,3.963 3.963,3.963 C -1.774,3.963 0,2.189 0,0"
             style="fill:#129b9b;fill-opacity:1;fill-rule:nonzero;stroke:none"
             id="path4913" />
        </g>
      </g>
    </g>
    <text
       xml:space="preserve"
       transform="matrix(1.1820667,0,0,-1.1288651,165.34845,261.21808)"
       style="font-variant:normal;font-weight:normal;font-stretch:normal;font-size:11px;font-family:Antonio;-inkscape-font-specification:Antonio-Regular;writing-mode:lr-tb;white-space:pre;inline-size:41.2211;display:inline;fill:#000000;fill-opacity:1;fill-rule:nonzero;stroke:none"
       id="text4919"><tspan
         x="0"
         y="0"
         id="tspan33745">Colpa
</tspan><tspan
         x="0"
         y="13.75"
         id="tspan33747">Bélgica</tspan></text>
    <g
       id="g4921"
       transform="matrix(1.1820667,0,0,1.1288651,-42.310857,-34.326235)">
      <g
         id="g4923"
         clip-path="url(#clipPath4927)">
        <g
           id="g4929"
           transform="translate(274.5666,147.6805)">
          <path
             d="m 0,0 c 0,-2.189 -1.774,-3.963 -3.963,-3.963 -2.189,0 -3.963,1.774 -3.963,3.963 0,2.189 1.774,3.963 3.963,3.963 C -1.774,3.963 0,2.189 0,0"
             style="fill:#00733c;fill-opacity:1;fill-rule:nonzero;stroke:none"
             id="path4931" />
        </g>
      </g>
    </g>
    <text
       xml:space="preserve"
       transform="matrix(1.1820667,0,0,-1.1288651,285.95047,127.72539)"
       style="font-variant:normal;font-weight:normal;font-stretch:normal;font-size:11px;font-family:Antonio;-inkscape-font-specification:Antonio-Regular;writing-mode:lr-tb;white-space:pre;inline-size:70.8847;display:inline;fill:#000000;fill-opacity:1;fill-rule:nonzero;stroke:none"
       id="text4937"><tspan
         x="0"
         y="0"
         id="tspan33749">Santa Cruz
</tspan><tspan
         x="0"
         y="13.75"
         id="tspan33751">de la Sierra</tspan></text>
    <text
       xml:space="preserve"
       transform="matrix(0.75000002,0,0,-0.75000002,0,439.73601)"
       id="text23931"
       style="font-style:normal;font-variant:normal;font-weight:normal;font-stretch:normal;font-size:12px;line-height:0%;font-family:Arial;-inkscape-font-specification:Arial;white-space:pre;shape-inside:url(#rect23933);display:inline;fill:#000000;fill-opacity:0.455319;stroke-width:6.393" />
    <text
       xml:space="preserve"
       transform="matrix(0.75000002,0,0,-0.75000002,0,439.73601)"
       id="text23937"
       style="font-style:normal;font-variant:normal;font-weight:normal;font-stretch:normal;font-size:12px;line-height:0%;font-family:Arial;-inkscape-font-specification:Arial;white-space:pre;shape-inside:url(#rect23939);display:inline;fill:#000000;fill-opacity:0.455319;stroke-width:6.393" />
  </g>
  <g
     id="g4941"
     inkscape:groupmode="layer"
     inkscape:label="Page 2"
     transform="matrix(1.3333333,0,0,-1.3333333,714.88933,586.31467)"
     style="display:none">
    <path
       d="M 0,0.667 H 521.168 V 439.736 H 0 Z"
       style="fill:#002a2f;fill-opacity:1;fill-rule:nonzero;stroke:none"
       id="path4943" />
    <g
       id="g4945"
       transform="translate(464.567,102.071)">
      <path
         d="m 0,0 -133.269,12.264 3.693,8.204 3.589,4.871 5.64,3.333 -6.409,7.691 -1.538,9.486 3.076,8.203 2.82,6.922 5.384,6.153 2.307,4.871 v 5.641 l -2.051,5.383 -1.538,2.564 5.64,6.409 -2.563,7.691 v 8.461 l -5.897,8.973 4.358,6.409 -0.512,8.204 -3.59,2.563 -0.769,9.23 5.384,4.102 -1.794,5.127 -2.564,2.564 2.051,6.665 -3.333,1.795 -1.026,2.82 1.026,7.948 21.791,-1.539 8.461,-3.076 4.614,-3.077 2.564,-3.589 4.358,1.282 1.539,3.846 1.794,10.511 78.193,11.28 z"
         style="fill:#ffffff;fill-opacity:1;fill-rule:nonzero;stroke:none"
         id="path4947" />
    </g>
    <g
       id="g4949"
       transform="translate(464.567,102.071)">
      <path
         d="m 0,0 -133.269,12.264 3.693,8.204 3.589,4.871 5.64,3.333 -6.409,7.691 -1.538,9.486 3.076,8.203 2.82,6.922 5.384,6.153 2.307,4.871 v 5.641 l -2.051,5.383 -1.538,2.564 5.64,6.409 -2.563,7.691 v 8.461 l -5.897,8.973 4.358,6.409 -0.512,8.204 -3.59,2.563 -0.769,9.23 5.384,4.102 -1.794,5.127 -2.564,2.564 2.051,6.665 -3.333,1.795 -1.026,2.82 1.026,7.948 21.791,-1.539 8.461,-3.076 4.614,-3.077 2.564,-3.589 4.358,1.282 1.539,3.846 1.794,10.511 78.193,11.28 z"
         style="fill:none;stroke:#000000;stroke-width:0.25;stroke-linecap:butt;stroke-linejoin:miter;stroke-miterlimit:10;stroke-dasharray:none;stroke-opacity:1"
         id="path4951" />
    </g>
    <g
       id="g4953"
       transform="translate(338.5801,127.4099)">
      <path
         d="m 0,0 5.64,3.333 -6.409,7.691 -1.538,9.486 3.076,8.204 2.82,6.921 5.384,6.153 2.307,4.871 V 52.3 l -2.051,5.383 -1.538,2.564 5.64,6.409 -2.563,7.691 v 8.461 l -5.897,8.973 4.358,6.409 -0.512,8.204 -3.59,2.563 -0.769,9.23 5.384,4.102 -1.795,5.127 -2.563,2.564 2.051,6.665 -3.333,1.795 -1.026,2.82 0.808,6.258 -26.991,-18.967 -17.891,-6.271 -7.221,-2.397 -11.673,-11.037 -40.752,-13.372 h -18.253 l -6.245,-3.598 v -9.773 l -2.882,-4.245 -0.424,-8.104 -5.306,-9.513 -1.698,-5.731 -14.221,-5.093 v -2.123 h 7.217 l 9.338,-7.429 -3.608,-5.518 14.645,-12.735 16.768,-9.763 10.4,2.334 4.033,-4.457 h 3.396 V 6.755 h 7.428 l 4.67,-4.882 8.49,-1.486 1.91,-4.881 7.216,-8.066 h 50.72 l 3.461,7.689 z"
         style="fill:#ffffff;fill-opacity:1;fill-rule:nonzero;stroke:none"
         id="path4955" />
    </g>
    <g
       id="g4957"
       transform="translate(338.5801,127.4099)">
      <path
         d="m 0,0 5.64,3.333 -6.409,7.691 -1.538,9.486 3.076,8.204 2.82,6.921 5.384,6.153 2.307,4.871 V 52.3 l -2.051,5.383 -1.538,2.564 5.64,6.409 -2.563,7.691 v 8.461 l -5.897,8.973 4.358,6.409 -0.512,8.204 -3.59,2.563 -0.769,9.23 5.384,4.102 -1.795,5.127 -2.563,2.564 2.051,6.665 -3.333,1.795 -1.026,2.82 0.808,6.258 -26.991,-18.967 -17.891,-6.271 -7.221,-2.397 -11.673,-11.037 -40.752,-13.372 h -18.253 l -6.245,-3.598 v -9.773 l -2.882,-4.245 -0.424,-8.104 -5.306,-9.513 -1.698,-5.731 -14.221,-5.093 v -2.123 h 7.217 l 9.338,-7.429 -3.608,-5.518 14.645,-12.735 16.768,-9.763 10.4,2.334 4.033,-4.457 h 3.396 V 6.755 h 7.428 l 4.67,-4.882 8.49,-1.486 1.91,-4.881 7.216,-8.066 h 50.72 l 3.461,7.689 z"
         style="fill:none;stroke:#000000;stroke-width:0.25;stroke-linecap:butt;stroke-linejoin:miter;stroke-miterlimit:10;stroke-dasharray:none;stroke-opacity:1"
         id="path4959" />
    </g>
    <g
       id="g4961"
       transform="translate(237.9364,222.8841)">
      <path
         d="m 0,0 40.751,13.372 11.674,11.036 4.59,49.43 h -2.922 v 4.64 l -4.64,7.218 13.061,17.185 -2.75,18.56 -3.78,4.468 h -8.249 l -4.468,5.671 6.014,10.827 -4.468,5.671 1.031,11.514 -5.671,2.234 -8.764,4.64 -6.359,9.967 18.732,13.748 -3.437,3.437 -4.984,-3.609 -2.749,0.86 -0.172,4.124 -8.249,1.89 -4.296,-7.561 -6.53,-4.468 v -5.499 l 5.155,-7.218 -0.172,-4.468 -6.358,-11.686 3.609,-5.156 -3.609,-3.608 -5.156,-1.375 2.862,-5.542 -0.697,-7.273 -3.985,-9.266 1.992,-1.295 -0.299,-4.184 3.188,-3.886 -0.896,-13.25 -18.184,-8.355 -7.338,-0.638 -4.307,-2.393 -8.613,5.743 -6.859,-3.828 v -4.945 l -9.89,-10.209 8.135,-12.761 3.35,-1.116 4.785,-8.913 -0.319,-4.167 1.755,-2.233 -1.595,-9.89 2.073,-2.871 2.074,-5.742 1.436,-2.712 -0.319,-7.816 V 3.627 l -7.019,-5.104 7.137,-2.121 1.253,0.606 5.193,2.992 z"
         style="fill:#ffffff;fill-opacity:1;fill-rule:nonzero;stroke:none"
         id="path4963" />
    </g>
    <g
       id="g4965"
       transform="translate(237.9364,222.8841)">
      <path
         d="m 0,0 40.751,13.372 11.674,11.036 4.59,49.43 h -2.922 v 4.64 l -4.64,7.218 13.061,17.185 -2.75,18.56 -3.78,4.468 h -8.249 l -4.468,5.671 6.014,10.827 -4.468,5.671 1.031,11.514 -5.671,2.234 -8.764,4.64 -6.359,9.967 18.732,13.748 -3.437,3.437 -4.984,-3.609 -2.749,0.86 -0.172,4.124 -8.249,1.89 -4.296,-7.561 -6.53,-4.468 v -5.499 l 5.155,-7.218 -0.172,-4.468 -6.358,-11.686 3.609,-5.156 -3.609,-3.608 -5.156,-1.375 2.862,-5.542 -0.697,-7.273 -3.985,-9.266 1.992,-1.295 -0.299,-4.184 3.188,-3.886 -0.896,-13.25 -18.184,-8.355 -7.338,-0.638 -4.307,-2.393 -8.613,5.743 -6.859,-3.828 v -4.945 l -9.89,-10.209 8.135,-12.761 3.35,-1.116 4.785,-8.913 -0.319,-4.167 1.755,-2.233 -1.595,-9.89 2.073,-2.871 2.074,-5.742 1.436,-2.712 -0.319,-7.816 V 3.627 l -7.019,-5.104 7.137,-2.121 1.253,0.606 5.193,2.992 z"
         style="fill:none;stroke:#000000;stroke-width:0.25;stroke-linecap:butt;stroke-linejoin:miter;stroke-miterlimit:10;stroke-dasharray:none;stroke-opacity:1"
         id="path4967" />
    </g>
    <g
       id="g4969"
       transform="translate(201.6342,314.5606)">
      <path
         d="m 0,0 6.859,3.828 8.613,-5.742 4.307,2.393 7.338,0.638 18.184,8.354 0.897,13.251 -3.189,3.885 0.299,4.185 -1.992,1.295 0.301,0.701 h -5.9 l -13.658,-5.186 -7.952,-2.593 -3.977,2.42 -5.013,0.173 -3.631,3.457 -1.037,6.397 -7.952,4.668 -7.434,-1.21 -3.458,1.21 -8.125,10.718 -5.532,-6.396 -1.729,-2.939 4.322,-4.582 h 4.84 l 0.692,-3.889 -1.902,-1.902 -0.173,-10.2 -2.247,-1.21 -2.593,-1.729 3.803,-6.569 -3.112,-3.631 -3.63,-1.383 -1.383,-2.074 3.284,-1.372 2.594,-2.086 -2.075,-2.247 2.593,-2.421 11.756,-11.928 7.41,-1.14 L 0,-4.945 Z"
         style="fill:#ffffff;fill-opacity:1;fill-rule:nonzero;stroke:none"
         id="path4971" />
    </g>
    <g
       id="g4973"
       transform="translate(201.6342,314.5606)">
      <path
         d="m 0,0 6.859,3.828 8.613,-5.742 4.307,2.393 7.338,0.638 18.184,8.354 0.897,13.251 -3.189,3.885 0.299,4.185 -1.992,1.295 0.301,0.701 h -5.9 l -13.658,-5.186 -7.952,-2.593 -3.977,2.42 -5.013,0.173 -3.631,3.457 -1.037,6.397 -7.952,4.668 -7.434,-1.21 -3.458,1.21 -8.125,10.718 -5.532,-6.396 -1.729,-2.939 4.322,-4.582 h 4.84 l 0.692,-3.889 -1.902,-1.902 -0.173,-10.2 -2.247,-1.21 -2.593,-1.729 3.803,-6.569 -3.112,-3.631 -3.63,-1.383 -1.383,-2.074 3.284,-1.372 2.594,-2.086 -2.075,-2.247 2.593,-2.421 11.756,-11.928 7.41,-1.14 L 0,-4.945 Z"
         style="fill:none;stroke:#000000;stroke-width:0.25;stroke-linecap:butt;stroke-linejoin:miter;stroke-miterlimit:10;stroke-dasharray:none;stroke-opacity:1"
         id="path4975" />
    </g>
    <g
       id="g4977"
       transform="translate(212.0024,251.7501)">
      <path
         d="m 0,0 -2.074,5.742 -2.073,2.872 1.595,9.889 -1.755,2.233 0.319,4.168 -4.785,8.912 -3.35,1.117 -4.22,6.619 -12.187,-5.061 -8.253,-4.322 -4.06,-2.751 -4.131,-6.943 -26.745,-16.012 1.099,-1.428 16.15,-1.319 4.944,-1.977 v -2.747 l 2.967,-5.383 0.659,-9.339 h 6.592 l 0.44,5.603 3.405,1.868 7.581,-8.68 14.809,9.449 9.362,-5.493 4.845,2.89 0.302,7.381 z"
         style="fill:#ffffff;fill-opacity:1;fill-rule:nonzero;stroke:none"
         id="path4979" />
    </g>
    <g
       id="g4981"
       transform="translate(212.0024,251.7501)">
      <path
         d="m 0,0 -2.074,5.742 -2.073,2.872 1.595,9.889 -1.755,2.233 0.319,4.168 -4.785,8.912 -3.35,1.117 -4.22,6.619 -12.187,-5.061 -8.253,-4.322 -4.06,-2.751 -4.131,-6.943 -26.745,-16.012 1.099,-1.428 16.15,-1.319 4.944,-1.977 v -2.747 l 2.967,-5.383 0.659,-9.339 h 6.592 l 0.44,5.603 3.405,1.868 7.581,-8.68 14.809,9.449 9.362,-5.493 4.845,2.89 0.302,7.381 z"
         style="fill:none;stroke:#000000;stroke-width:0.25;stroke-linecap:butt;stroke-linejoin:miter;stroke-miterlimit:10;stroke-dasharray:none;stroke-opacity:1"
         id="path4983" />
    </g>
    <g
       id="g4985"
       transform="translate(349.8604,179.7095)">
      <path
         d="m 0,0 -2.051,5.384 -1.538,2.563 5.64,6.41 -2.564,7.691 v 8.46 l -5.896,8.973 4.358,6.409 -0.022,0.352 -89.915,0.56 V -7.366 l 6.678,-4.006 20.034,-0.149 2.82,2.226 6.827,0.742 3.71,-1.706 -0.742,-4.527 h 10.982 l 8.756,2.523 6.084,-2.523 0.594,2.968 3.561,1.336 4.121,1.632 4.042,1.559 2.522,-1.559 h 3.117 l 2.82,3.117 5.296,-1.524 L 0,-5.64 Z"
         style="fill:#ffffff;fill-opacity:1;fill-rule:nonzero;stroke:none"
         id="path4987" />
    </g>
    <g
       id="g4989"
       transform="translate(349.8604,179.7095)">
      <path
         d="m 0,0 -2.051,5.384 -1.538,2.563 5.64,6.41 -2.564,7.691 v 8.46 l -5.896,8.973 4.358,6.409 -0.022,0.352 -89.915,0.56 V -7.366 l 6.678,-4.006 20.034,-0.149 2.82,2.226 6.827,0.742 3.71,-1.706 -0.742,-4.527 h 10.982 l 8.756,2.523 6.084,-2.523 0.594,2.968 3.561,1.336 4.121,1.632 4.042,1.559 2.522,-1.559 h 3.117 l 2.82,3.117 5.296,-1.524 L 0,-5.64 Z"
         style="fill:none;stroke:#000000;stroke-width:0.25;stroke-linecap:butt;stroke-linejoin:miter;stroke-miterlimit:10;stroke-dasharray:none;stroke-opacity:1"
         id="path4991" />
    </g>
    <g
       id="g4993"
       transform="translate(273.5939,122.9156)">
      <path
         d="m 0,0 -1.91,4.882 -8.49,1.485 -4.67,4.882 h -7.428 v 2.972 h -3.396 l -4.033,4.457 -10.4,-2.335 -16.768,9.763 -14.645,12.735 3.609,5.519 -9.339,7.428 h -5.834 l -5.513,-1.884 0.267,-4.28 -0.535,-5.752 -1.204,-6.688 -3.477,3.612 h -5.618 l -5.217,-2.809 -7.223,-9.096 5.35,-5.083 -6.42,-2.943 5.216,-19.396 3.746,-8.025 4.681,4.28 3.612,-4.682 1.873,-0.802 3.477,2.541 3.077,1.154 2.525,-0.886 -1.856,-3.077 1.856,-1.471 3.227,-1.873 -6.153,-0.535 -3.077,-1.739 -1.204,-2.006 -1.739,-5.484 0.268,-3.879 2.006,-3.344 -2.407,-2.141 -13.778,-6.554 5.351,-12.039 -6.689,-8.56 h -7.089 l -4.949,-5.618 -1.605,-6.02 -5.083,0.134 -2.274,2.007 -17.657,-12.173 4.147,-3.611 h 5.35 l 6.153,1.872 20.332,11.236 6.421,-5.35 6.42,0.134 2.676,-4.415 6.554,2.542 v 3.076 l 3.344,3.211 3.344,-2.675 8.828,-0.268 4.415,-4.013 4.815,-0.267 6.956,-3.211 v 30.231 l 15.382,1.07 v 15.516 l -4.146,0.803 v 17.255 h -8.294 l -1.07,5.885 5.083,4.281 24.88,1.956 3.076,-5.3 h 19.688 v 3.076 l 11.211,-0.802 v 3.026 h -0.81 z"
         style="fill:#ffffff;fill-opacity:1;fill-rule:nonzero;stroke:none"
         id="path4995" />
    </g>
    <g
       id="g4997"
       transform="translate(273.5939,122.9156)">
      <path
         d="m 0,0 -1.91,4.882 -8.49,1.485 -4.67,4.882 h -7.428 v 2.972 h -3.396 l -4.033,4.457 -10.4,-2.335 -16.768,9.763 -14.645,12.735 3.609,5.519 -9.339,7.428 h -5.834 l -5.513,-1.884 0.267,-4.28 -0.535,-5.752 -1.204,-6.688 -3.477,3.612 h -5.618 l -5.217,-2.809 -7.223,-9.096 5.35,-5.083 -6.42,-2.943 5.216,-19.396 3.746,-8.025 4.681,4.28 3.612,-4.682 1.873,-0.802 3.477,2.541 3.077,1.154 2.525,-0.886 -1.856,-3.077 1.856,-1.471 3.227,-1.873 -6.153,-0.535 -3.077,-1.739 -1.204,-2.006 -1.739,-5.484 0.268,-3.879 2.006,-3.344 -2.407,-2.141 -13.778,-6.554 5.351,-12.039 -6.689,-8.56 h -7.089 l -4.949,-5.618 -1.605,-6.02 -5.083,0.134 -2.274,2.007 -17.657,-12.173 4.147,-3.611 h 5.35 l 6.153,1.872 20.332,11.236 6.421,-5.35 6.42,0.134 2.676,-4.415 6.554,2.542 v 3.076 l 3.344,3.211 3.344,-2.675 8.828,-0.268 4.415,-4.013 4.815,-0.267 6.956,-3.211 v 30.231 l 15.382,1.07 v 15.516 l -4.146,0.803 v 17.255 h -8.294 l -1.07,5.885 5.083,4.281 24.88,1.956 3.076,-5.3 h 19.688 v 3.076 l 11.211,-0.802 v 3.026 h -0.81 z"
         style="fill:none;stroke:#000000;stroke-width:0.25;stroke-linecap:butt;stroke-linejoin:miter;stroke-miterlimit:10;stroke-dasharray:none;stroke-opacity:1"
         id="path4999" />
    </g>
    <g
       id="g5001"
       transform="translate(161.7697,147.8063)">
      <path
         d="m 0,0 7.223,9.096 5.217,2.809 h 5.618 l 3.478,-3.612 1.204,6.688 0.535,5.752 -0.268,4.28 4.283,1.464 -0.152,2.543 14.22,5.094 1.698,5.731 5.306,9.512 0.425,8.104 2.881,4.245 v 9.774 l -7.136,2.12 7.018,5.105 V 93.38 l 0.023,0.557 -5.051,-3.013 -9.362,5.493 -14.809,-9.448 -7.581,8.679 -3.406,-1.867 -0.439,-5.604 H 4.333 L 3.674,97.516 0.707,102.9 v 2.746 l -4.944,1.978 -16.15,1.318 -1.099,1.429 0.568,-7.529 0.848,-3.708 -3.39,-1.059 -2.436,-2.118 -0.741,-5.72 -4.449,-0.741 v -8.579 l -3.177,-3.284 4.236,-0.635 -1.483,-4.761 -8.155,-5.408 0.953,-6.461 -0.424,-3.919 -8.473,-14.299 -0.636,-10.697 3.813,-6.779 4.767,-0.741 4.509,-3.602 -0.908,-11.121 1.906,-3.072 0.53,-3.601 7.308,-10.592 h 8.474 l 4.131,-3.601 7.52,3.178 5.683,1.209 0.683,-0.188 5.179,2.374 z"
         style="fill:#ffffff;fill-opacity:1;fill-rule:nonzero;stroke:none"
         id="path5003" />
    </g>
    <g
       id="g5005"
       transform="translate(161.7697,147.8063)">
      <path
         d="m 0,0 7.223,9.096 5.217,2.809 h 5.618 l 3.478,-3.612 1.204,6.688 0.535,5.752 -0.268,4.28 4.283,1.464 -0.152,2.543 14.22,5.094 1.698,5.731 5.306,9.512 0.425,8.104 2.881,4.245 v 9.774 l -7.136,2.12 7.018,5.105 V 93.38 l 0.023,0.557 -5.051,-3.013 -9.362,5.493 -14.809,-9.448 -7.581,8.679 -3.406,-1.867 -0.439,-5.604 H 4.333 L 3.674,97.516 0.707,102.9 v 2.746 l -4.944,1.978 -16.15,1.318 -1.099,1.429 0.568,-7.529 0.848,-3.708 -3.39,-1.059 -2.436,-2.118 -0.741,-5.72 -4.449,-0.741 v -8.579 l -3.177,-3.284 4.236,-0.635 -1.483,-4.761 -8.155,-5.408 0.953,-6.461 -0.424,-3.919 -8.473,-14.299 -0.636,-10.697 3.813,-6.779 4.767,-0.741 4.509,-3.602 -0.908,-11.121 1.906,-3.072 0.53,-3.601 7.308,-10.592 h 8.474 l 4.131,-3.601 7.52,3.178 5.683,1.209 0.683,-0.188 5.179,2.374 z"
         style="fill:none;stroke:#000000;stroke-width:0.25;stroke-linecap:butt;stroke-linejoin:miter;stroke-miterlimit:10;stroke-dasharray:none;stroke-opacity:1"
         id="path5007" />
    </g>
    <g
       id="g5009"
       transform="translate(125.7057,157.8213)">
      <path
         d="M 0,0 0.036,-0.058 0.891,10.417 0.852,10.448 Z"
         style="fill:#ffffff;fill-opacity:1;fill-rule:nonzero;stroke:none"
         id="path5011" />
    </g>
    <g
       id="g5013"
       transform="translate(125.7416,157.7635)">
      <path
         d="M 0,0 0.855,10.475 0.817,10.505 -0.036,0.058 Z"
         style="fill:none;stroke:#000000;stroke-width:0.25;stroke-linecap:butt;stroke-linejoin:miter;stroke-miterlimit:10;stroke-dasharray:none;stroke-opacity:1"
         id="path5015" />
    </g>
    <g
       id="g5017"
       transform="translate(155.5577,139.4288)">
      <path
         d="m 0,0 -7.52,-3.178 -4.131,3.602 h -8.473 l -7.309,10.592 -0.529,3.601 -1.907,3.071 0.053,0.647 -0.036,0.058 0.853,10.447 -4.471,3.571 -4.766,0.741 -3.813,6.779 0.039,0.664 -0.023,0.041 0.131,2.194 -7.062,-7.596 2.594,-4.02 -4.02,-9.725 -15.691,-8.818 0.519,-10.245 -4.409,1.427 -4.539,1.686 -4.279,-3.891 h -5.835 l 4.798,-4.798 5.187,-1.426 0.259,-6.743 2.334,-2.204 0.26,-10.25 -4.28,-4.404 2.723,-3.501 10.828,-0.648 2.659,-10.504 -0.519,-12.189 -5.446,-5.965 3.306,-0.649 h 6.289 l 6.484,-12.578 h 3.242 l 16.998,-24.82 h 1.168 l 16.488,11.367 2.274,-2.006 5.083,-0.134 1.605,6.02 4.949,5.617 h 7.09 l 6.688,8.561 -5.351,12.039 13.778,6.554 2.408,2.14 -2.007,3.344 -0.267,3.88 1.739,5.484 1.203,2.006 3.077,1.739 6.153,0.535 -3.226,1.873 -1.857,1.471 1.857,3.077 -2.526,0.885 -3.076,-1.153 -3.478,-2.541 -1.873,0.802 -3.611,4.682 -4.682,-4.28 -3.745,8.025 L 5.142,0.352 5.87,1.158 5.683,1.21 Z"
         style="fill:#ffffff;fill-opacity:1;fill-rule:nonzero;stroke:none"
         id="path5019" />
    </g>
    <g
       id="g5021"
       transform="translate(155.5577,139.4288)">
      <path
         d="m 0,0 -7.52,-3.178 -4.131,3.602 h -8.473 l -7.309,10.592 -0.529,3.601 -1.907,3.071 0.053,0.647 -0.036,0.058 0.853,10.447 -4.471,3.571 -4.766,0.741 -3.813,6.779 0.039,0.664 -0.023,0.041 0.131,2.194 -7.062,-7.596 2.594,-4.02 -4.02,-9.725 -15.691,-8.818 0.519,-10.245 -4.409,1.427 -4.539,1.686 -4.279,-3.891 h -5.835 l 4.798,-4.798 5.187,-1.426 0.259,-6.743 2.334,-2.204 0.26,-10.25 -4.28,-4.404 2.723,-3.501 10.828,-0.648 2.659,-10.504 -0.519,-12.189 -5.446,-5.965 3.306,-0.649 h 6.289 l 6.484,-12.578 h 3.242 l 16.998,-24.82 h 1.168 l 16.488,11.367 2.274,-2.006 5.083,-0.134 1.605,6.02 4.949,5.617 h 7.09 l 6.688,8.561 -5.351,12.039 13.778,6.554 2.408,2.14 -2.007,3.344 -0.267,3.88 1.739,5.484 1.203,2.006 3.077,1.739 6.153,0.535 -3.226,1.873 -1.857,1.471 1.857,3.077 -2.526,0.885 -3.076,-1.153 -3.478,-2.541 -1.873,0.802 -3.611,4.682 -4.682,-4.28 -3.745,8.025 L 5.142,0.352 5.87,1.158 5.683,1.21 Z"
         style="fill:none;stroke:#000000;stroke-width:0.25;stroke-linecap:butt;stroke-linejoin:miter;stroke-miterlimit:10;stroke-dasharray:none;stroke-opacity:1"
         id="path5023" />
    </g>
    <text
       xml:space="preserve"
       transform="matrix(1,0,0,-1,394.1553,186.9014)"
       style="font-variant:normal;font-weight:normal;font-stretch:normal;font-size:10px;font-family:Antonio;-inkscape-font-specification:Antonio-Regular;writing-mode:lr-tb;fill:#000000;fill-opacity:1;fill-rule:nonzero;stroke:none"
       id="text5029"><tspan
         x="0 4.5999999 9.3400002 11.96 14.55 19.290001"
         y="0"
         sodipodi:role="line"
         id="tspan5025">Pailón</tspan><tspan
         x="-101.99 -97.260002 -92.519997 -89.404999 -84.665001 -80.084999"
         y="-6.3899999"
         sodipodi:role="line"
         id="tspan5027">Cotoca</tspan></text>
    <text
       xml:space="preserve"
       transform="matrix(1,0,0,-1,151.7388,192.1523)"
       style="font-variant:normal;font-weight:normal;font-stretch:normal;font-size:11px;font-family:Antonio;-inkscape-font-specification:Antonio-Regular;writing-mode:lr-tb;fill:#000000;fill-opacity:1;fill-rule:nonzero;stroke:none"
       id="text5035"><tspan
         x="0 5.0599999 10.274 14.014 19.228001 24.705999 30.018999"
         y="0"
         sodipodi:role="line"
         id="tspan5031">Porongo</tspan><tspan
         x="-30.063 -25.761999 -22.913 -20.944 -17.415199 -12.2012 -8.4611998 -2.9832001"
         y="94.918999"
         sodipodi:role="line"
         id="tspan5033">El Torno</tspan></text>
    <text
       xml:space="preserve"
       transform="matrix(1,0,0,-1,192.1279,125.3145)"
       style="font-variant:normal;font-weight:normal;font-stretch:normal;font-size:10px;font-family:Antonio;-inkscape-font-specification:Antonio-Regular;writing-mode:lr-tb;fill:#000000;fill-opacity:1;fill-rule:nonzero;stroke:none"
       id="text5051"><tspan
         x="0 3.6700001 8.4099998 10.2 15.08 20.01 24.75 28.15 33.02 35.639999"
         y="0"
         sodipodi:role="line"
         id="tspan5037">La Guardia</tspan><tspan
         x="47.220001 53.714001 58.453999 61.854 66.834 71.444"
         y="-141.5"
         sodipodi:role="line"
         id="tspan5039">Warnes</tspan><tspan
         x="4.4699998 11.39 16.129999 21.110001 24.225 28.834999 32.235001"
         y="-200.13"
         sodipodi:role="line"
         id="tspan5041">Montero</tspan><tspan
         x="-14.91 -10.18 -5.4400001 -2.8499999 2.02"
         y="-137.37"
         sodipodi:role="line"
         id="tspan5043">Colpa</tspan><tspan
         x="-14.91 -10.11 -5.5 -2.9100001 1.92 4.54 9.1199999"
         y="-126.37"
         sodipodi:role="line"
         id="tspan5045">Bélgica</tspan><tspan
         x="91.160004 95.43 100.17 105.15 108.265 113.005 114.795 119.525 122.925 127.855"
         y="-20.120001"
         sodipodi:role="line"
         id="tspan5047">Santa Cruz</tspan><tspan
         x="91.160004 96.029999 100.64 102.43 105.02 109.76 111.55 115.82 118.44 123.05 126.45 129.85001"
         y="-9.1199999"
         sodipodi:role="line"
         id="tspan5049">de la Sierra</tspan></text>
    <g
       id="g5053">
      <g
         id="g5055"
         clip-path="url(#clipPath5059)">
        <g
           id="g5061"
           transform="translate(190.3842,332.4005)">
          <path
             d="M 0,0 C 0.009,1.237 -1.004,2.277 -2.27,2.28 -3.513,2.283 -4.547,1.273 -4.55,0.009 -4.553,-1.251 -3.523,-2.269 -2.279,-2.271 -1.011,-2.273 0.004,-1.233 0,0 m -2.273,-9.727 c -0.018,0.025 -0.033,0.043 -0.045,0.062 -0.206,0.318 -0.411,0.636 -0.616,0.955 -0.934,1.456 -1.862,2.915 -2.768,4.388 -0.386,0.627 -0.768,1.256 -1.131,1.897 -0.093,0.164 -0.187,0.327 -0.253,0.504 -0.122,0.325 -0.215,0.658 -0.28,1 -0.078,0.414 -0.099,0.831 -0.074,1.25 0.041,0.671 0.207,1.311 0.5,1.917 0.649,1.345 1.834,2.339 3.272,2.744 0.255,0.072 0.515,0.121 0.779,0.153 0.327,0.039 0.655,0.047 0.983,0.024 0.652,-0.046 1.273,-0.21 1.863,-0.491 C 1.35,4.011 2.383,2.743 2.75,1.248 2.813,0.993 2.855,0.735 2.88,0.473 2.906,0.185 2.908,-0.104 2.886,-0.392 2.856,-0.792 2.778,-1.184 2.657,-1.566 2.621,-1.68 2.583,-1.793 2.543,-1.905 2.502,-2.02 2.449,-2.129 2.39,-2.236 2.117,-2.73 1.828,-3.214 1.536,-3.697 0.757,-4.981 -0.045,-6.251 -0.852,-7.517 -1.305,-8.227 -1.761,-8.935 -2.216,-9.644 -2.233,-9.67 -2.251,-9.695 -2.273,-9.727"
             style="fill:#c0ce6f;fill-opacity:1;fill-rule:nonzero;stroke:none"
             id="path5063" />
        </g>
        <g
           id="g5065"
           transform="translate(234.1291,274.2562)">
          <path
             d="M 0,0 C 0.009,1.237 -1.004,2.277 -2.27,2.28 -3.513,2.283 -4.547,1.273 -4.55,0.009 -4.553,-1.251 -3.523,-2.269 -2.279,-2.271 -1.011,-2.273 0.004,-1.233 0,0 m -2.273,-9.727 c -0.018,0.025 -0.033,0.043 -0.045,0.062 -0.206,0.318 -0.411,0.636 -0.616,0.955 -0.934,1.456 -1.862,2.915 -2.768,4.388 -0.386,0.627 -0.768,1.256 -1.131,1.897 -0.093,0.164 -0.187,0.327 -0.253,0.504 -0.122,0.325 -0.215,0.658 -0.28,1 -0.078,0.414 -0.099,0.831 -0.074,1.25 0.041,0.671 0.207,1.311 0.5,1.917 0.649,1.345 1.834,2.339 3.272,2.744 0.255,0.072 0.515,0.121 0.779,0.153 0.327,0.039 0.655,0.047 0.983,0.024 0.652,-0.046 1.273,-0.21 1.863,-0.491 C 1.35,4.011 2.383,2.743 2.75,1.248 2.813,0.993 2.855,0.735 2.879,0.473 2.906,0.185 2.908,-0.104 2.886,-0.392 2.856,-0.792 2.778,-1.184 2.657,-1.566 2.621,-1.68 2.583,-1.793 2.543,-1.905 2.502,-2.02 2.449,-2.129 2.39,-2.236 2.117,-2.73 1.828,-3.214 1.536,-3.697 0.757,-4.981 -0.045,-6.251 -0.852,-7.517 -1.305,-8.227 -1.761,-8.935 -2.216,-9.644 -2.233,-9.67 -2.251,-9.695 -2.273,-9.727"
             style="fill:#82912c;fill-opacity:1;fill-rule:nonzero;stroke:none"
             id="path5067" />
        </g>
        <g
           id="g5069"
           transform="translate(285.5575,199.9385)">
          <path
             d="M 0,0 C 0.009,1.237 -1.004,2.277 -2.27,2.28 -3.513,2.283 -4.547,1.273 -4.55,0.009 -4.553,-1.251 -3.523,-2.269 -2.279,-2.271 -1.011,-2.273 0.004,-1.233 0,0 m -2.273,-9.727 c -0.018,0.025 -0.033,0.043 -0.045,0.062 -0.206,0.318 -0.411,0.636 -0.616,0.955 -0.934,1.456 -1.862,2.915 -2.768,4.388 -0.386,0.627 -0.768,1.256 -1.131,1.897 -0.093,0.164 -0.187,0.327 -0.253,0.504 -0.122,0.325 -0.215,0.658 -0.28,1 -0.078,0.414 -0.099,0.831 -0.074,1.25 0.041,0.671 0.207,1.311 0.5,1.917 0.649,1.345 1.834,2.339 3.272,2.744 0.255,0.072 0.515,0.121 0.779,0.153 0.327,0.039 0.655,0.047 0.983,0.024 0.652,-0.046 1.273,-0.21 1.863,-0.491 C 1.35,4.011 2.383,2.743 2.75,1.248 2.813,0.993 2.855,0.735 2.879,0.473 2.906,0.185 2.908,-0.104 2.886,-0.392 2.855,-0.792 2.778,-1.184 2.657,-1.566 2.621,-1.68 2.583,-1.793 2.543,-1.905 2.502,-2.02 2.449,-2.129 2.39,-2.236 2.117,-2.73 1.828,-3.214 1.536,-3.697 0.757,-4.981 -0.045,-6.251 -0.852,-7.517 -1.305,-8.227 -1.761,-8.935 -2.216,-9.644 -2.233,-9.67 -2.251,-9.695 -2.273,-9.727"
             style="fill:#a6cd2f;fill-opacity:1;fill-rule:nonzero;stroke:none"
             id="path5071" />
        </g>
        <g
           id="g5073"
           transform="translate(145.3285,200.5599)">
          <path
             d="M 0,0 C 0.009,1.237 -1.004,2.277 -2.27,2.28 -3.513,2.283 -4.547,1.273 -4.55,0.009 -4.553,-1.251 -3.523,-2.269 -2.279,-2.271 -1.011,-2.273 0.004,-1.233 0,0 m -2.273,-9.727 c -0.018,0.025 -0.033,0.043 -0.045,0.062 -0.206,0.318 -0.411,0.636 -0.616,0.955 -0.934,1.456 -1.862,2.915 -2.768,4.388 -0.386,0.627 -0.768,1.256 -1.131,1.897 -0.093,0.164 -0.187,0.327 -0.253,0.504 -0.122,0.325 -0.215,0.658 -0.28,1 -0.078,0.414 -0.099,0.831 -0.074,1.25 0.041,0.671 0.207,1.311 0.5,1.917 0.649,1.345 1.834,2.339 3.272,2.744 0.255,0.072 0.515,0.121 0.779,0.153 0.327,0.039 0.655,0.047 0.983,0.024 0.652,-0.046 1.273,-0.21 1.863,-0.491 C 1.35,4.011 2.383,2.743 2.75,1.248 2.813,0.993 2.855,0.735 2.88,0.473 2.906,0.185 2.908,-0.104 2.886,-0.392 2.856,-0.792 2.778,-1.184 2.657,-1.566 2.621,-1.68 2.583,-1.793 2.543,-1.905 2.502,-2.02 2.449,-2.129 2.39,-2.236 2.117,-2.73 1.828,-3.214 1.536,-3.697 0.757,-4.981 -0.045,-6.251 -0.852,-7.517 -1.305,-8.227 -1.761,-8.935 -2.216,-9.644 -2.233,-9.67 -2.251,-9.695 -2.273,-9.727"
             style="fill:#274235;fill-opacity:1;fill-rule:nonzero;stroke:none"
             id="path5075" />
        </g>
        <g
           id="g5077"
           transform="translate(276.8591,152.5836)">
          <path
             d="M 0,0 C 0.009,1.237 -1.004,2.277 -2.27,2.28 -3.513,2.283 -4.547,1.273 -4.55,0.009 -4.553,-1.251 -3.523,-2.269 -2.279,-2.271 -1.011,-2.273 0.004,-1.233 0,0 m -2.273,-9.727 c -0.018,0.025 -0.033,0.043 -0.045,0.062 -0.206,0.318 -0.411,0.636 -0.616,0.955 -0.934,1.456 -1.862,2.915 -2.768,4.388 -0.386,0.627 -0.769,1.256 -1.131,1.897 -0.093,0.164 -0.187,0.327 -0.253,0.504 -0.122,0.325 -0.215,0.658 -0.28,1 -0.078,0.414 -0.099,0.831 -0.074,1.25 0.041,0.671 0.207,1.311 0.5,1.917 0.649,1.345 1.834,2.339 3.272,2.744 0.255,0.072 0.515,0.121 0.779,0.153 0.327,0.039 0.655,0.047 0.983,0.024 0.652,-0.046 1.273,-0.21 1.863,-0.491 C 1.35,4.011 2.383,2.743 2.75,1.248 2.813,0.993 2.855,0.735 2.879,0.473 2.906,0.185 2.908,-0.104 2.886,-0.392 2.855,-0.792 2.778,-1.184 2.657,-1.566 2.621,-1.68 2.583,-1.793 2.543,-1.905 2.502,-2.02 2.449,-2.129 2.39,-2.236 2.117,-2.73 1.828,-3.214 1.536,-3.697 0.757,-4.981 -0.045,-6.251 -0.852,-7.517 -1.305,-8.227 -1.761,-8.935 -2.216,-9.644 -2.233,-9.67 -2.251,-9.695 -2.273,-9.727"
             style="fill:#00733c;fill-opacity:1;fill-rule:nonzero;stroke:none"
             id="path5079" />
        </g>
        <g
           id="g5081"
           transform="translate(186.9098,131.9368)">
          <path
             d="M 0,0 C 0.009,1.237 -1.004,2.277 -2.27,2.28 -3.513,2.283 -4.547,1.273 -4.55,0.009 -4.553,-1.251 -3.523,-2.269 -2.279,-2.271 -1.011,-2.273 0.004,-1.233 0,0 m -2.273,-9.727 c -0.018,0.025 -0.033,0.043 -0.045,0.062 -0.206,0.318 -0.411,0.636 -0.616,0.955 -0.934,1.456 -1.862,2.915 -2.768,4.388 -0.386,0.627 -0.768,1.256 -1.131,1.897 -0.093,0.164 -0.187,0.327 -0.253,0.504 -0.122,0.325 -0.215,0.658 -0.28,1 -0.078,0.414 -0.099,0.831 -0.074,1.25 0.041,0.671 0.207,1.311 0.5,1.917 0.649,1.345 1.834,2.339 3.272,2.744 0.255,0.072 0.515,0.121 0.779,0.153 0.327,0.039 0.655,0.047 0.983,0.024 0.652,-0.046 1.273,-0.21 1.863,-0.491 C 1.35,4.011 2.383,2.743 2.75,1.248 2.813,0.993 2.855,0.735 2.88,0.473 2.906,0.185 2.908,-0.104 2.886,-0.392 2.856,-0.792 2.778,-1.184 2.657,-1.566 2.621,-1.68 2.583,-1.793 2.543,-1.905 2.502,-2.02 2.449,-2.129 2.39,-2.236 2.117,-2.73 1.828,-3.214 1.536,-3.697 0.757,-4.981 -0.045,-6.251 -0.852,-7.517 -1.305,-8.227 -1.761,-8.935 -2.216,-9.644 -2.233,-9.67 -2.251,-9.695 -2.273,-9.727"
             style="fill:#8b936a;fill-opacity:1;fill-rule:nonzero;stroke:none"
             id="path5083" />
        </g>
        <g
           id="g5085"
           transform="translate(115.2378,104.3443)">
          <path
             d="M 0,0 C 0.009,1.237 -1.004,2.277 -2.27,2.28 -3.513,2.283 -4.547,1.273 -4.55,0.009 -4.553,-1.251 -3.523,-2.269 -2.279,-2.271 -1.011,-2.273 0.004,-1.233 0,0 m -2.273,-9.727 c -0.018,0.025 -0.033,0.043 -0.045,0.062 -0.206,0.318 -0.411,0.636 -0.616,0.955 -0.934,1.456 -1.862,2.915 -2.768,4.388 -0.386,0.627 -0.768,1.256 -1.131,1.897 -0.093,0.164 -0.187,0.327 -0.253,0.504 -0.122,0.325 -0.215,0.658 -0.28,1 -0.078,0.414 -0.099,0.831 -0.074,1.25 0.041,0.671 0.207,1.311 0.5,1.917 0.649,1.345 1.834,2.339 3.272,2.744 0.255,0.072 0.515,0.121 0.779,0.153 0.327,0.039 0.655,0.047 0.983,0.024 0.652,-0.046 1.273,-0.21 1.863,-0.491 C 1.35,4.011 2.383,2.743 2.75,1.248 2.813,0.993 2.855,0.735 2.88,0.473 2.906,0.185 2.908,-0.104 2.886,-0.392 2.856,-0.792 2.778,-1.184 2.657,-1.566 2.621,-1.68 2.583,-1.793 2.543,-1.905 2.502,-2.02 2.449,-2.129 2.39,-2.236 2.117,-2.73 1.828,-3.214 1.536,-3.697 0.757,-4.981 -0.045,-6.251 -0.852,-7.517 -1.305,-8.227 -1.761,-8.935 -2.216,-9.644 -2.233,-9.67 -2.251,-9.695 -2.273,-9.727"
             style="fill:#c3c6ac;fill-opacity:1;fill-rule:nonzero;stroke:none"
             id="path5087" />
        </g>
        <g
           id="g5089"
           transform="translate(388.9372,193.1066)">
          <path
             d="M 0,0 C 0.009,1.237 -1.004,2.277 -2.27,2.28 -3.513,2.283 -4.547,1.273 -4.55,0.009 -4.553,-1.251 -3.523,-2.269 -2.279,-2.271 -1.011,-2.273 0.004,-1.233 0,0 m -2.273,-9.727 c -0.018,0.025 -0.033,0.043 -0.045,0.062 -0.206,0.318 -0.411,0.636 -0.616,0.955 -0.934,1.456 -1.862,2.915 -2.768,4.388 -0.386,0.627 -0.768,1.256 -1.131,1.897 -0.093,0.164 -0.187,0.327 -0.253,0.504 -0.122,0.325 -0.215,0.658 -0.28,1 -0.078,0.414 -0.099,0.831 -0.074,1.25 0.041,0.671 0.207,1.311 0.5,1.917 0.649,1.345 1.834,2.339 3.272,2.744 0.255,0.072 0.515,0.121 0.779,0.153 0.327,0.039 0.655,0.047 0.983,0.024 0.652,-0.046 1.273,-0.21 1.863,-0.491 C 1.35,4.011 2.383,2.743 2.75,1.248 2.813,0.993 2.855,0.735 2.879,0.473 2.906,0.185 2.908,-0.104 2.886,-0.392 2.855,-0.792 2.778,-1.184 2.657,-1.566 2.621,-1.68 2.583,-1.793 2.543,-1.905 2.502,-2.02 2.449,-2.129 2.39,-2.236 2.117,-2.73 1.828,-3.214 1.536,-3.697 0.757,-4.981 -0.045,-6.251 -0.852,-7.517 -1.305,-8.227 -1.761,-8.935 -2.216,-9.644 -2.233,-9.67 -2.251,-9.695 -2.273,-9.727"
             style="fill:#00a54a;fill-opacity:1;fill-rule:nonzero;stroke:none"
             id="path5091" />
        </g>
        <g
           id="g5093"
           transform="translate(171.9198,263.5633)">
          <path
             d="M 0,0 C 0.009,1.237 -1.004,2.277 -2.27,2.28 -3.513,2.283 -4.547,1.273 -4.55,0.009 -4.553,-1.251 -3.523,-2.269 -2.279,-2.271 -1.011,-2.273 0.004,-1.233 0,0 m -2.273,-9.727 c -0.018,0.025 -0.033,0.043 -0.045,0.062 -0.206,0.318 -0.411,0.636 -0.616,0.955 -0.934,1.456 -1.862,2.915 -2.768,4.388 -0.386,0.627 -0.768,1.256 -1.131,1.897 -0.093,0.164 -0.187,0.327 -0.253,0.504 -0.122,0.325 -0.215,0.658 -0.28,1 -0.078,0.414 -0.099,0.831 -0.074,1.25 0.041,0.671 0.207,1.311 0.5,1.917 0.649,1.345 1.834,2.339 3.272,2.744 0.255,0.072 0.515,0.121 0.779,0.153 0.327,0.039 0.655,0.047 0.983,0.024 0.652,-0.046 1.273,-0.21 1.863,-0.491 C 1.35,4.011 2.383,2.743 2.75,1.248 2.813,0.993 2.855,0.735 2.879,0.473 2.906,0.185 2.908,-0.104 2.886,-0.392 2.856,-0.792 2.778,-1.184 2.657,-1.566 2.621,-1.68 2.583,-1.793 2.543,-1.905 2.502,-2.02 2.449,-2.129 2.39,-2.236 2.117,-2.73 1.828,-3.214 1.536,-3.697 0.757,-4.981 -0.045,-6.251 -0.852,-7.517 -1.305,-8.227 -1.761,-8.935 -2.216,-9.644 -2.233,-9.67 -2.251,-9.695 -2.273,-9.727"
             style="fill:#129b9b;fill-opacity:1;fill-rule:nonzero;stroke:none"
             id="path5095" />
        </g>
      </g>
    </g>
    <path
       style="fill:#f0f0f0;fill-opacity:0.455319;stroke-width:4.79475"
       d="m -395.95341,258.19486 c 27.5517,16.09456 27.14251,15.82177 27.14251,15.82177 l 3.68265,7.09252 12.95749,7.3653 11.59353,4.63742 4.50103,-6.54694 3.27347,-1.09116 4.63741,-8.72925 -0.27279,-4.36462 1.75076,-2.1951 -1.6878,-9.741 2.21824,-3.03803 1.83247,-5.44917 1.63957,-2.94159 -0.19289,-7.18519 -4.91872,-2.98981 -9.45166,5.44917 -14.80439,-9.40344 -7.6192,8.6801 -3.42381,-1.88069 -0.43401,-5.64206 -6.51006,0.0482 -0.67512,9.21054 -2.98982,5.44917 0.0965,2.84515 -5.06339,1.83246 -16.15462,1.49491 z"
       id="path5734" />
    <ellipse
       style="fill:#0096aa;fill-opacity:0.455319;stroke-width:4.79475"
       id="path14465-1"
       cx="-366.66699"
       cy="-268.36102"
       transform="scale(1,-1)"
       rx="3.1875"
       ry="3.375" />
    <path
       style="fill:#f0f0f0;fill-opacity:0.455319;stroke-width:4.79475"
       d="m -344.43333,299.48013 8.34254,-12.82726 3.30325,-1.15735 4.72583,-8.80065 -0.31344,-4.2436 1.73601,-2.29058 -1.66368,-9.66866 2.17002,-3.03803 1.92891,-5.52151 1.54314,-2.91748 -0.21701,-7.11286 0.12056,-15.31072 -7.16108,-5.15984 7.08875,-2.17002 6.3654,3.64082 h 18.27642 l 40.76001,13.41819 11.67879,11.04796 4.50102,49.35778 -2.93249,0.0341 v 4.67151 l -4.63741,7.19481 13.12798,17.15161 -2.76199,18.61786 -3.78495,4.39873 -8.25187,0.0682 -4.50102,5.62628 6.00136,10.77516 -4.50102,5.72858 1.15936,11.52534 -5.79678,2.21641 -8.66105,4.63741 -6.42759,9.97385 18.65195,13.67356 -3.34167,3.46101 -4.9784,-3.56331 -2.81314,0.85247 -0.11934,4.10888 -8.3086,1.94123 -4.12304,-7.57097 -6.65474,-4.53294 0.0603,-5.48534 5.12367,-7.22136 -0.15672,-4.43649 -6.41708,-11.73707 3.64003,-5.09774 -3.56331,-3.58036 -5.17447,-1.38952 2.88987,-5.58365 -0.70755,-7.25448 -3.98955,-9.21516 2.01183,-1.29575 -0.28132,-4.15151 3.17118,-3.95544 -0.92919,-13.29847 -18.24592,-8.33079 -7.25752,-0.65101 -4.29183,-2.3388 -8.63187,5.69028 -6.84763,-3.78548 -0.0482,-4.8705 z"
       id="path10590" />
    <ellipse
       style="fill:#0b1909;fill-opacity:0.455319;stroke-width:4.79475"
       id="path14465-9"
       cx="-304.79199"
       cy="-270.23602"
       transform="scale(1,-1)"
       rx="3.1875"
       ry="3.375" />
    <path
       style="fill:#f0f0f0;fill-opacity:0.455319;stroke-width:4.79475"
       d="m -361.11841,367.4501 -5.54427,-6.51604 -1.60264,-2.86428 4.26233,-4.56922 h 4.84201 l 0.68197,-3.81905 -1.90952,-2.01182 -0.1364,-10.025 -2.25051,-1.36395 -2.65969,-1.73903 3.92134,-6.58104 -3.13707,-3.58035 -3.68265,-1.36395 -1.39805,-2.11411 3.30757,-1.32985 2.55739,-2.14821 -1.97772,-2.21642 14.32143,-14.35552 7.16072,-1.12526 9.71806,9.95223 0.0482,4.96695 6.94408,3.8096 8.6801,-5.73851 4.19538,2.31469 7.37808,0.72335 18.17997,8.34253 0.81979,13.30948 -3.1827,3.76138 0.28934,4.14715 -1.97714,1.35024 0.33756,0.77157 -5.85791,-0.0748 -21.58084,-7.76134 -4.0266,2.36291 -5.01516,0.217 -3.71315,3.47204 -0.96446,6.31718 -7.98087,4.70172 -7.40219,-1.15734 -3.47204,1.20556 z"
       id="path11318" />
    <ellipse
       style="fill:#a1e999;fill-opacity:0.455319;stroke-width:4.79475"
       id="path14465-4"
       cx="-348.66699"
       cy="-329.11102"
       transform="scale(1,-1)"
       rx="3.1875"
       ry="3.375" />
    <path
       style="fill:#f0f0f0;fill-opacity:0.455319;stroke-width:4.79475"
       d="m -395.94044,258.21257 0.60937,-7.66407 0.82031,-3.5625 -3.35156,-1.00781 -2.50781,-2.17969 -0.72656,-5.625 -4.42969,-0.82031 -0.0234,-8.625 -3.23438,-3.30469 4.26563,-0.67968 -1.45313,-4.64063 -8.15625,-5.41406 0.98438,-6.46875 -0.42188,-3.91406 -8.48437,-14.32032 -0.65625,-10.59375 3.82031,-6.86718 4.75781,-0.70313 4.5,-3.60937 -0.86718,-11.06251 1.875,-3.14062 0.51562,-3.53906 7.38281,-10.66407 8.4375,0.0234 4.14844,-3.60937 7.54688,3.16406 5.69531,1.21875 0.58594,-0.23437 5.29687,2.34375 -5.34375,5.10937 7.17188,9.11719 5.20312,2.8125 5.64412,0.0364 3.414,-3.48859 1.24296,6.57113 0.52204,5.67619 -0.29002,4.29235 4.32551,1.53299 -0.15744,2.41963 14.2029,5.1873 1.66557,5.68447 5.33644,9.56252 0.40604,8.08753 2.89195,4.27578 0.0166,9.6371 -7.20918,2.17932 7.15946,5.19558 -0.10772,15.13098 -4.83927,-2.98311 -9.48794,5.49389 -14.79952,-9.42164 -7.64007,8.70901 -3.37257,-1.86444 -0.44746,-5.63476 -6.55455,0.0248 -0.67949,9.24763 -3.00796,5.45246 0.10772,2.80909 -5.05471,1.8313 -16.12535,1.49155 z"
       id="path12111" />
    <path
       style="fill:#f0f0f0;fill-opacity:0.455319;stroke-width:4.79475"
       d="m -422.62665,182.21103 -6.94401,-7.49092 2.65165,-4.04376 -4.07691,-9.71167 -15.71104,-8.84988 0.49719,-10.17571 -8.94932,3.09911 -4.20949,-3.86146 -5.99936,-0.0497 4.87241,-4.78954 5.22043,-1.47498 0.2486,-6.67885 2.35333,-2.23733 0.23202,-10.242 -4.24264,-4.40837 2.71794,-3.54658 10.83863,-0.6132 2.61851,-10.490584 -0.48062,-12.21417 -5.50217,-5.999356 3.36428,-0.66291 6.26452,0.03315 6.49654,-12.578767 3.26485,0.03315 16.97057,-24.875791 h 1.19324 l 16.4568,11.418668 2.35334,-1.955595 5.07128,-0.149153 1.54128,5.982788 4.98841,5.58504 h 7.02688 l 6.6457,8.535 -5.28673,12.03186 13.78858,6.645698 2.33676,2.121323 -2.02188,3.364282 -0.26517,3.861465 1.7733,5.502172 1.22639,1.90588 3.09911,1.85615 5.80049,0.54691 -2.85053,1.69042 -1.93902,1.5247 1.85616,3.06597 -2.4362,0.92808 -3.0494,-1.14352 -3.49686,-2.61851 -1.97217,0.86179 -3.48029,4.59067 -4.69011,-4.12663 -3.79517,8.00467 -5.22044,19.35705 0.58005,0.76234 -5.63476,-1.14352 -7.64006,-3.21513 -4.14321,3.62945 h -8.46871 l -7.39148,10.65632 -0.46404,3.54659 -1.90587,3.08253 0.82864,11.07065 -4.42494,3.61287 -4.80611,0.7292 -3.81175,6.86115 z"
       id="path12113" />
    <ellipse
       style="fill:#a6d279;fill-opacity:0.455319;stroke-width:4.79475"
       id="path14465-7"
       cx="-424.04202"
       cy="-101.86101"
       transform="scale(1,-1)"
       rx="3.1875"
       ry="3.375" />
    <path
       style="fill:#f0f0f0;fill-opacity:0.455319;stroke-width:4.79475"
       d="m -409.11232,40.267249 -1.00781,-0.65625 4.125,-3.679687 h 5.39062 l 6.07032,1.898437 20.39062,11.296876 6.42188,-5.437501 6.44531,0.210938 2.64844,-4.453125 6.58593,2.601562 -0.0703,3.046875 3.44531,3.281251 3.30469,-2.671876 8.85938,-0.304687 4.45312,-4.007813 4.73438,-0.257812 6.9375,-3.140625 0.0469,30.117188 15.25781,1.125 0.0469,15.421876 -4.125,0.820312 -0.0234,17.179692 -8.22656,0.0703 -1.125,6 5.08593,4.21875 24.91407,1.89844 3.07031,-5.22656 19.64062,-0.0234 0.0469,3.07031 11.15625,-0.77344 0.0469,2.85938 -0.86719,0.0937 -7.21875,8.13281 -1.92188,4.78125 -8.4375,1.5 -4.61719,4.875 h -7.47663 l -0.0469,2.97656 h -3.35156 l -4.03125,4.47656 -10.42969,-2.34375 -16.6875,9.75 -14.64844,12.79688 3.5625,5.48438 -9.28125,7.38281 -6.07031,0.0234 -0.9375,-0.25781 -4.3711,-1.60547 0.30469,-4.25391 -0.52734,-5.70703 -1.25391,-6.58594 -3.48047,3.45703 -5.57812,-0.0234 -5.22656,-2.80078 -7.125,-9.05859 5.33202,-5.14453 -5.36718,-2.39063 -0.51563,0.1875 -0.59765,-0.76172 5.20312,-19.3125 3.78516,-7.92187 4.62891,4.08984 3.58593,-4.60547 1.89844,-0.85546 3.44531,2.60156 3.11719,1.14844 2.48438,-0.94923 -1.79298,-3.03515 1.85157,-1.53516 2.84766,-1.73437 -5.74219,-0.62109 -3.14929,-1.82496 -1.22638,-1.90587 -1.7733,-5.535319 0.24859,-3.745463 2.02189,-3.38085 -2.30363,-2.17104 -13.78857,-6.612555 5.27015,-11.982143 -6.6457,-8.634435 -7.04344,-0.01657 -4.97185,-5.568465 -1.55784,-5.999363 -5.08786,0.182303 -2.32019,1.90587 z"
       id="path12115" />
    <ellipse
       style="fill:#7fb17a;fill-opacity:0.455319;stroke-width:4.79475"
       id="path14465-72"
       cx="-356.54199"
       cy="-126.98601"
       transform="scale(1,-1)"
       rx="3.1875"
       ry="3.375" />
    <path
       style="fill:#f0f0f0;fill-opacity:0.455319;stroke-width:4.79475"
       d="m -245.70606,247.33757 25.14843,8.78906 26.76842,18.77615 -0.77893,-6.24795 1.01095,-2.83395 3.34771,-1.78986 -2.07161,-6.61255 2.61851,-2.60194 1.80644,-5.10443 -5.3696,-4.07691 0.77892,-9.18134 3.4803,-2.60193 0.5469,-7.77265 -89.94067,0.49719 0.0497,-54.19311 6.62913,-4.07691 20.1194,-0.14916 2.78423,2.27048 6.87772,0.7292 3.57973,-1.72357 -0.66291,-4.47466 10.88834,-0.0829 8.81674,2.5025 6.11536,-2.46935 0.67949,2.91682 11.60097,4.52437 2.56878,-1.54127 3.14884,0.0332 2.80081,3.0494 5.17072,-1.42527 -1.40869,-3.21513 -5.40274,-6.18165 -5.93307,-15.19728 1.50812,-9.47965 6.43026,-7.65663 -5.58504,-3.33114 -3.5963,-4.82269 -3.53001,-7.72293 -50.62818,-0.0137 -7.22752,8.11784 -1.97217,4.77297 -8.45213,1.55785 -4.62382,4.90555 -7.47433,-0.0166 v 2.94996 l -3.414,0.0166 -4.01963,4.44974 -10.42969,-2.32031 -16.71093,9.77344 -14.60742,12.74414 3.57422,5.47851 -9.31641,7.41211 -6.11719,0.0175 -0.49219,-0.1289 -0.48046,-0.16406 -0.16406,2.35546 14.21484,5.19727 1.68164,5.69531 5.31328,9.56202 0.40603,8.09168 2.88811,4.26622 0.0322,9.66797 6.28418,3.62695 18.27539,0.0117 40.79297,13.37696 z"
       id="path12117" />
    <ellipse
       style="fill:#1b6812;fill-opacity:0.455319;stroke-width:4.79475"
       id="path14465-3"
       cx="-264.29199"
       cy="-146.48601"
       transform="scale(1,-1)"
       rx="3.1875"
       ry="3.375" />
    <path
       style="fill:#f0f0f0;fill-opacity:0.455319;stroke-width:4.79475"
       d="m -278.294,226.51016 0.0332,-54.09056 6.63282,-4.06641 20.0625,-0.1289 2.77734,2.23828 6.89062,0.71484 3.66798,-1.69922 -0.70313,-4.48828 10.86328,-0.0703 8.83594,2.53125 6.03516,-2.46094 0.66796,2.85938 11.6836,4.58202 2.54296,-1.57031 3.14063,0.0469 2.82422,3.03516 5.16797,-1.42969 0.79687,1.51171 -0.0352,5.74219 -2.01563,5.32031 -1.46485,2.58985 5.60157,6.33984 -2.58984,7.76954 0.0117,8.41406 -5.94141,9 4.37109,6.41015 -0.0469,0.36329 z"
       id="path12119" />
    <ellipse
       style="fill:#87bb19;fill-opacity:0.455319;stroke-width:4.79475"
       id="path14465-36"
       cx="-248.54199"
       cy="-195.98601"
       transform="scale(1,-1)"
       rx="3.1875"
       ry="3.375" />
    <path
       style="fill:#f0f0f0;fill-opacity:0.455319;stroke-width:4.79475"
       d="m -193.40804,276.59322 -1.11638,-7.89237 0.99023,-2.84766 3.36914,-1.83398 -2.05664,-6.59179 2.59571,-2.57227 1.82226,-5.1504 -5.40234,-4.07812 0.77343,-9.14648 3.50391,-2.61915 0.5918,-8.26171 -4.42969,-6.38672 5.9414,-9.01758 -0.0117,-8.39649 2.60742,-7.75781 -5.5957,-6.36914 1.48828,-2.56055 1.96289,-5.35546 0.0586,-5.75977 -2.23828,-4.76953 -5.43164,-6.1875 -5.91211,-15.15235 1.51172,-9.45703 6.43946,-7.69336 -5.61329,-3.33984 -3.56836,-4.82227 -3.75,-8.26172 133.346392,-12.19756 1.259535,190.09019 -78.074537,-11.18664 -1.80643,-10.39116 -1.49156,-3.92775 -4.40837,-1.37555 -2.56878,3.57973 -4.60725,3.11569 -8.45214,3.06597 z"
       id="path12847" />
    <ellipse
       style="fill:#138506;fill-opacity:0.455319;stroke-width:4.79475"
       id="path14465-5"
       cx="-149.54201"
       cy="-189.61101"
       transform="scale(1,-1)"
       rx="3.1875"
       ry="3.375" />
    <ellipse
       style="fill:#a1e999;fill-opacity:0.455319;stroke-width:4.79475"
       id="path14465"
       cx="-391.97949"
       cy="-195.98601"
       transform="scale(1,-1)"
       rx="3.1875"
       ry="3.375" />
    <text
       xml:space="preserve"
       transform="matrix(0.75000002,0,0,-0.75000002,-536.16701,439.73601)"
       id="text16918"
       style="font-size:8px;line-height:0%;font-family:Broadway;-inkscape-font-specification:Broadway;white-space:pre;shape-inside:url(#rect16920);display:inline;fill:#0096aa;fill-opacity:0.455319;stroke-width:6.393" />
    <text
       xml:space="preserve"
       style="font-size:6px;line-height:0%;font-family:Broadway;-inkscape-font-specification:Broadway;fill:#0096aa;fill-opacity:0.455319;stroke-width:4.79475"
       x="-372.66699"
       y="-195.98601"
       id="text16926"
       transform="scale(1,-1)"><tspan
         sodipodi:role="line"
         id="tspan16924"
         style="stroke-width:4.79475"
         x="-372.66699"
         y="-195.98601"></tspan></text>
    <text
       xml:space="preserve"
       style="font-style:normal;font-variant:normal;font-weight:normal;font-stretch:normal;font-size:11.2451px;line-height:0%;font-family:'Bauhaus 93';-inkscape-font-specification:'Bauhaus 93, ';fill:#0096aa;fill-opacity:0.455319;stroke-width:8.98624"
       x="-450.07013"
       y="-182.64072"
       id="text16930"
       transform="scale(0.84679357,-1.1809254)"><tspan
         sodipodi:role="line"
         id="tspan16928"
         style="font-style:normal;font-variant:normal;font-weight:normal;font-stretch:normal;font-family:'Bauhaus 93';-inkscape-font-specification:'Bauhaus 93, ';stroke-width:8.98624"
         x="-450.07013"
         y="-182.64072" /></text>
    <text
       xml:space="preserve"
       style="font-style:normal;font-variant:normal;font-weight:normal;font-stretch:normal;font-size:9px;line-height:0%;font-family:Cambria;-inkscape-font-specification:Cambria;white-space:pre;inline-size:26.124;display:inline;fill:#0096aa;fill-opacity:0.455319;stroke-width:4.79475"
       x="-388.41699"
       y="-221.86101"
       id="text18436"
       transform="scale(1,-1)" />
    <text
       xml:space="preserve"
       style="font-style:normal;font-variant:normal;font-weight:normal;font-stretch:normal;font-size:9px;line-height:0%;font-family:Arial;-inkscape-font-specification:Arial;fill:#030809;fill-opacity:0.455319;stroke-width:4.79475"
       x="-383.54199"
       y="-193.36101"
       id="text19268"
       transform="scale(1,-1)"><tspan
         sodipodi:role="line"
         id="tspan19266"
         style="fill:#000000;fill-opacity:0.455319;stroke-width:4.79475"
         x="-383.54199"
         y="-193.36101">Porongo</tspan></text>
    <text
       xml:space="preserve"
       style="font-style:normal;font-variant:normal;font-weight:normal;font-stretch:normal;font-size:9px;line-height:0%;font-family:Arial;-inkscape-font-specification:Arial;fill:#030809;fill-opacity:0.455319;stroke-width:4.79475"
       x="-291.66699"
       y="-266.48599"
       id="text19272"
       transform="scale(1,-1)"><tspan
         sodipodi:role="line"
         id="tspan19270"
         style="stroke-width:4.79475"
         x="-291.66699"
         y="-266.48599">orongo</tspan></text>
    <g
       aria-label="Pailón"
       transform="scale(1,-1)"
       id="text20104"
       style="font-size:9px;line-height:0%;font-family:Arial;-inkscape-font-specification:Arial;fill-opacity:0.455319;stroke-width:4.79475">
      <path
         d="m -140.59766,-186.61101 v -6.44238 h 2.43018 q 0.6416,0 0.97998,0.0615 0.47461,0.0791 0.79541,0.30323 0.3208,0.21972 0.51416,0.61962 0.19775,0.39991 0.19775,0.87891 0,0.82178 -0.52294,1.39307 -0.52295,0.56689 -1.88965,0.56689 h -1.65235 v 2.61914 z m 0.85254,-3.37939 h 1.66553 q 0.82617,0 1.17334,-0.30762 0.34717,-0.30762 0.34717,-0.86572 0,-0.4043 -0.20654,-0.68994 -0.20215,-0.29004 -0.53614,-0.38233 -0.21533,-0.0571 -0.79541,-0.0571 h -1.64795 z"
         id="path22076" />
      <path
         d="m -131.65039,-187.18669 q -0.43945,0.37353 -0.84815,0.52734 -0.40429,0.15381 -0.87011,0.15381 -0.76905,0 -1.18213,-0.37353 -0.41309,-0.37793 -0.41309,-0.96241 0,-0.34277 0.15381,-0.62402 0.1582,-0.28564 0.40869,-0.45703 0.25489,-0.17139 0.57129,-0.25928 0.23291,-0.0615 0.70313,-0.11865 0.958,-0.11426 1.41064,-0.27246 0.004,-0.1626 0.004,-0.20654 0,-0.4834 -0.22413,-0.68116 -0.30322,-0.26806 -0.90087,-0.26806 -0.55811,0 -0.82618,0.19775 -0.26367,0.19336 -0.39111,0.68994 l -0.77344,-0.10547 q 0.10547,-0.49658 0.34717,-0.7998 0.2417,-0.30762 0.69873,-0.47022 0.45703,-0.16699 1.05908,-0.16699 0.59766,0 0.9712,0.14063 0.37353,0.14062 0.54931,0.35595 0.17578,0.21094 0.2461,0.53614 0.0395,0.20214 0.0395,0.72949 v 1.05469 q 0,1.10302 0.0483,1.39746 0.0527,0.29004 0.20214,0.5581 h -0.82617 q -0.12304,-0.24609 -0.1582,-0.57568 z m -0.0659,-1.7666 q -0.43066,0.17578 -1.29199,0.29883 -0.48779,0.0703 -0.68994,0.1582 -0.20215,0.0879 -0.31201,0.25928 -0.10987,0.16699 -0.10987,0.37353 0,0.31641 0.23731,0.52734 0.2417,0.21094 0.70312,0.21094 0.45703,0 0.81299,-0.19775 0.35596,-0.20215 0.52295,-0.54932 0.12744,-0.26806 0.12744,-0.79101 z"
         id="path22078" />
      <path
         d="m -129.68604,-192.14372 v -0.90967 h 0.79102 v 0.90967 z m 0,5.53271 v -4.66699 h 0.79102 v 4.66699 z"
         id="path22080" />
      <path
         d="m -127.7085,-186.61101 v -6.44238 h 0.79102 v 6.44238 z"
         id="path22082" />
      <path
         d="m -125.98584,-188.9445 q 0,-1.29639 0.7207,-1.92041 0.60205,-0.51856 1.46778,-0.51856 0.9624,0 1.57324,0.63281 0.61084,0.62842 0.61084,1.74024 0,0.90088 -0.27246,1.41943 -0.26807,0.51416 -0.78662,0.79981 -0.51416,0.28564 -1.125,0.28564 -0.97998,0 -1.58643,-0.62842 -0.60205,-0.62841 -0.60205,-1.81054 z m 0.81299,0 q 0,0.89648 0.39111,1.34472 0.39111,0.44385 0.98438,0.44385 0.58886,0 0.97998,-0.44824 0.39111,-0.44824 0.39111,-1.3667 0,-0.86572 -0.39551,-1.30957 -0.39111,-0.44824 -0.97558,-0.44824 -0.59327,0 -0.98438,0.44384 -0.39111,0.44385 -0.39111,1.34034 z m 0.93603,-2.91358 0.58448,-1.23047 h 1.03711 l -0.9668,1.23047 z"
         id="path22084" />
      <path
         d="m -120.68604,-186.61101 v -4.66699 h 0.71192 v 0.66357 q 0.51416,-0.76904 1.48535,-0.76904 0.42188,0 0.77344,0.15381 0.35595,0.14941 0.53174,0.39551 0.17578,0.24609 0.24609,0.58447 0.0439,0.21973 0.0439,0.76904 v 2.86963 h -0.79102 v -2.83886 q 0,-0.4834 -0.0923,-0.72071 -0.0923,-0.2417 -0.32959,-0.38232 -0.23291,-0.14502 -0.54931,-0.14502 -0.50537,0 -0.87451,0.3208 -0.36475,0.3208 -0.36475,1.21728 v 2.54883 z"
         id="path22086" />
    </g>
    <text
       xml:space="preserve"
       style="font-style:normal;font-variant:normal;font-weight:normal;font-stretch:normal;font-size:9px;line-height:0%;font-family:Arial;-inkscape-font-specification:Arial;fill:#000000;fill-opacity:0.455319;stroke-width:4.79475"
       x="-240.29201"
       y="-190.73601"
       id="text20108"
       transform="scale(1,-1)"><tspan
         sodipodi:role="line"
         id="tspan20106"
         style="stroke-width:4.79475"
         x="-240.29201"
         y="-190.73601">Cotoca</tspan></text>
    <text
       xml:space="preserve"
       style="font-style:normal;font-variant:normal;font-weight:normal;font-stretch:normal;font-size:9px;line-height:0%;font-family:Arial;-inkscape-font-specification:Arial;fill:#000000;fill-opacity:0.455319;stroke-width:4.79475"
       x="-257.16699"
       y="-146.11101"
       id="text20112"
       transform="scale(1,-1)"><tspan
         sodipodi:role="line"
         id="tspan20110"
         style="stroke-width:4.79475"
         x="-257.16699"
         y="-146.11101">Santa Cruz</tspan></text>
    <text
       xml:space="preserve"
       style="font-style:normal;font-variant:normal;font-weight:normal;font-stretch:normal;font-size:9px;line-height:0%;font-family:Arial;-inkscape-font-specification:Arial;fill:#000000;fill-opacity:0.455319;stroke-width:4.79475"
       x="-255.29201"
       y="-132.98601"
       id="text20116"
       transform="scale(1,-1)"><tspan
         sodipodi:role="line"
         id="tspan20114"
         style="stroke-width:4.79475"
         x="-255.29201"
         y="-132.98601">de la Sierra</tspan></text>
    <text
       xml:space="preserve"
       style="font-style:normal;font-variant:normal;font-weight:normal;font-stretch:normal;font-size:9px;line-height:0%;font-family:Arial;-inkscape-font-specification:Arial;fill:#000000;fill-opacity:0.455319;stroke-width:4.79475"
       x="-350.16699"
       y="-122.861"
       id="text20120"
       transform="scale(1,-1)"><tspan
         sodipodi:role="line"
         id="tspan20118"
         style="stroke-width:4.79475"
         x="-350.16699"
         y="-122.861">La Guardia</tspan></text>
    <text
       xml:space="preserve"
       style="font-style:normal;font-variant:normal;font-weight:normal;font-stretch:normal;font-size:9px;line-height:0%;font-family:Arial;-inkscape-font-specification:Arial;fill:#000000;fill-opacity:0.455319;stroke-width:4.79475"
       x="-416.54199"
       y="-95.486"
       id="text20124"
       transform="scale(1,-1)"><tspan
         sodipodi:role="line"
         id="tspan20122"
         style="stroke-width:4.79475"
         x="-416.54199"
         y="-95.486">El Torno</tspan></text>
    <text
       xml:space="preserve"
       style="font-style:normal;font-variant:normal;font-weight:normal;font-stretch:normal;font-size:9px;line-height:0%;font-family:Arial;-inkscape-font-specification:Arial;fill:#000000;fill-opacity:0.455319;stroke-width:4.79475"
       x="-361.79199"
       y="-263.86099"
       id="text20128"
       transform="scale(1,-1)"><tspan
         sodipodi:role="line"
         id="tspan20126"
         style="stroke-width:4.79475"
         x="-361.79199"
         y="-263.86099">Colpa</tspan></text>
    <text
       xml:space="preserve"
       style="font-style:normal;font-variant:normal;font-weight:normal;font-stretch:normal;font-size:9px;line-height:0%;font-family:Arial;-inkscape-font-specification:Arial;fill:#000000;fill-opacity:0.455319;stroke-width:4.79475"
       x="-360.66699"
       y="-250.36101"
       id="text20132"
       transform="scale(1,-1)"><tspan
         sodipodi:role="line"
         id="tspan20130"
         style="stroke-width:4.79475"
         x="-360.66699"
         y="-250.36101">Bélgica</tspan></text>
    <text
       xml:space="preserve"
       style="font-style:normal;font-variant:normal;font-weight:normal;font-stretch:normal;font-size:9px;line-height:0%;font-family:Arial;-inkscape-font-specification:Arial;fill:#000000;fill-opacity:0.455319;stroke-width:4.79475"
       x="-341.91699"
       y="-324.98599"
       id="text20136"
       transform="scale(1,-1)"><tspan
         sodipodi:role="line"
         id="tspan20134"
         style="stroke-width:4.79475"
         x="-341.91699"
         y="-324.98599">Montero</tspan></text>
  </g>
</svg>
