<?xml version="1.0" standalone="no"?>
<!DOCTYPE svg PUBLIC "-//W3C//DTD SVG 20010904//EN"
 "http://www.w3.org/TR/2001/REC-SVG-20010904/DTD/svg10.dtd">
<svg version="1.0" xmlns="http://www.w3.org/2000/svg"
 width="215.000000pt" height="215.000000pt" viewBox="0 0 215.000000 215.000000"
 preserveAspectRatio="xMidYMid meet">
<metadata>
Created by potrace 1.16, written by Peter Selinger 2001-2019
</metadata>
<g transform="translate(0.000000,215.000000) scale(0.100000,-0.100000)"
fill="#000000" stroke="none">
<path d="M1166 755 c-3 -8 -13 -15 -23 -15 -41 -1 -67 -42 -42 -67 14 -14 7
-59 -9 -55 -8 1 -12 -19 -14 -70 -3 -152 -5 -143 28 -144 16 -1 65 -5 109 -9
91 -9 90 -9 135 74 l25 46 75 7 c41 4 96 13 123 19 28 7 74 8 115 4 l68 -7 27
40 c25 38 25 41 8 56 -10 9 -25 16 -35 16 -9 0 -38 9 -64 20 -78 32 -406 100
-488 100 -19 0 -34 -6 -38 -15z"/>
</g>
</svg>
